<svg width="187" height="49" viewBox="0 0 187 49" fill="none" xmlns="http://www.w3.org/2000/svg">
<path d="M43.8308 40.4921H40.638C38.0625 40.4921 36.0404 39.7543 34.593 38.2998C33.1456 36.8243 32.4219 34.7796 32.4219 32.1447V12.4987C32.4219 11.9717 32.6773 11.7188 33.2094 11.7188H35.785C36.3171 11.7188 36.5725 11.9928 36.5725 12.4987V31.976C36.5725 35.2433 38.1476 36.8875 41.2979 36.8875H44.5545C46.2574 36.8875 47.5771 36.4448 48.4923 35.5384C49.4076 34.632 49.8546 33.3462 49.8546 31.702V12.5198C49.8546 11.9928 50.11 11.7398 50.6421 11.7398H53.1964C53.7285 11.7398 53.9839 12.0139 53.9839 12.5198V39.7332C53.9839 40.2602 53.7072 40.5132 53.1964 40.5132H50.6421C50.11 40.5132 49.8546 40.2602 49.8546 39.7332V37.541H49.6204C48.7052 39.4803 46.7682 40.4921 43.8308 40.4921Z" fill="white"/>
<path d="M64.6934 48.7396H62.1391C61.607 48.7396 61.3516 48.4655 61.3516 47.9596V12.5041C61.3516 11.9772 61.607 11.7242 62.1391 11.7242H64.6934C65.2255 11.7242 65.4809 11.9982 65.4809 12.5041V14.6964H65.7151C66.6729 12.6939 68.6099 11.7031 71.526 11.7031H74.9529C77.5284 11.7031 79.5505 12.4409 80.9767 13.8954C82.4028 15.3709 83.1052 17.4156 83.1052 20.0506V32.129C83.1052 34.764 82.4028 36.8086 80.9767 38.2842C79.5505 39.7598 77.5497 40.4765 74.9529 40.4765H71.526C68.6099 40.4765 66.6516 39.4857 65.7151 37.4832H65.4809V47.9175C65.5022 48.4655 65.2255 48.7396 64.6934 48.7396ZM70.8023 36.8719H74.1653C77.4007 36.8719 79.0184 35.2277 79.0184 31.9604V20.2192C79.0184 16.9519 77.4007 15.3077 74.1653 15.3077H70.8023C69.0994 15.3077 67.7797 15.7504 66.8645 16.6568C65.9492 17.5632 65.5022 18.849 65.5022 20.4932V31.6653C65.5022 33.3306 65.9492 34.5953 66.8645 35.5017C67.7797 36.4292 69.0994 36.8719 70.8023 36.8719Z" fill="white"/>
<path d="M100.837 40.494H97.474C94.8984 40.494 92.8763 39.7563 91.4289 38.3018C89.9815 36.8262 89.2578 34.7815 89.2578 32.1466V20.0681C89.2578 17.4332 89.9815 15.3885 91.4289 13.913C92.8763 12.4374 94.8771 11.7207 97.474 11.7207H100.837C103.796 11.7207 105.754 12.7114 106.712 14.714H106.946V1.62369C106.946 1.0967 107.201 0.84375 107.691 0.84375H110.309C110.799 0.84375 111.054 1.11778 111.054 1.62369V39.7352C111.054 40.2622 110.799 40.5151 110.309 40.5151H107.691C107.201 40.5151 106.946 40.2622 106.946 39.7352V37.5429H106.712C105.754 39.4822 103.796 40.494 100.837 40.494ZM106.946 31.6829V20.5108C106.946 18.8455 106.499 17.5808 105.584 16.6744C104.668 15.7679 103.37 15.3253 101.646 15.3253H98.1764C95.0261 15.3253 93.451 16.9695 93.451 20.2368V31.978C93.451 35.2453 95.0261 36.8895 98.1764 36.8895H101.646C103.349 36.8895 104.668 36.4468 105.584 35.5404C106.478 34.6129 106.946 33.3481 106.946 31.6829Z" fill="white"/>
<path d="M129.167 40.4921H126.208C123.59 40.4921 121.525 39.7543 120.014 38.2998C118.503 36.8243 117.758 34.7796 117.758 32.1447V20.0662C117.758 17.4313 118.503 15.3866 120.014 13.911C121.525 12.4354 123.569 11.7188 126.208 11.7188H138.575C139.107 11.7188 139.362 11.9928 139.362 12.4987V39.7122C139.362 40.2391 139.086 40.4921 138.575 40.4921H136.021C135.489 40.4921 135.233 40.2391 135.233 39.7122V37.5199H134.999C134.041 39.4803 132.083 40.4921 129.167 40.4921ZM135.212 31.6809V15.8292C135.212 15.492 135.02 15.3233 134.637 15.3233H126.655C123.505 15.3233 121.93 16.9675 121.93 20.2348V31.976C121.93 35.2433 123.505 36.8875 126.655 36.8875H129.912C131.615 36.8875 132.934 36.4448 133.85 35.5384C134.744 34.6109 135.212 33.3462 135.212 31.6809Z" fill="white"/>
<path d="M147.745 15.3012H144.616C144.084 15.3012 143.828 15.0482 143.828 14.5634V12.4765C143.828 11.9496 144.084 11.6966 144.616 11.6966H147.745C148.128 11.6966 148.319 11.528 148.319 11.1907V6.34244C148.319 5.81545 148.575 5.5625 149.107 5.5625H151.661C152.151 5.5625 152.406 5.83653 152.406 6.34244V11.1907C152.406 11.528 152.619 11.6966 153.023 11.6966H159.068C159.643 11.6966 159.92 11.9706 159.92 12.4765V14.5634C159.92 15.0482 159.643 15.3012 159.068 15.3012H153.023C152.598 15.3012 152.406 15.4698 152.406 15.8071V32.0593C152.406 35.2633 154.088 36.8654 157.429 36.8654H159.643C160.218 36.8654 160.495 37.1394 160.495 37.6453V39.7322C160.495 40.217 160.218 40.4699 159.643 40.4699H156.897C154.279 40.4699 152.193 39.7532 150.618 38.2988C149.064 36.8443 148.277 34.8207 148.277 32.2279V15.8071C148.319 15.4909 148.128 15.3012 147.745 15.3012Z" fill="white"/>
<path d="M185.931 40.4921H173.841C171.223 40.4921 169.158 39.7543 167.647 38.2998C166.136 36.8243 165.391 34.7796 165.391 32.1447V20.0662C165.391 17.4313 166.136 15.3866 167.647 13.911C169.158 12.4354 171.202 11.7188 173.841 11.7188H178.63C181.248 11.7188 183.313 12.4565 184.782 13.911C186.272 15.3866 186.995 17.4313 186.995 20.0662V27.2332C186.995 27.8023 186.719 28.0763 186.208 28.0763H170.073C169.69 28.0763 169.499 28.245 169.499 28.5822V32.0182C169.499 35.2855 171.095 36.9297 174.288 36.9297H185.91C186.442 36.9297 186.697 37.2037 186.697 37.7096V39.7332C186.74 40.2391 186.463 40.4921 185.931 40.4921ZM170.095 25.0831H182.398C182.781 25.0831 182.972 24.8934 182.972 24.5139V20.1716C182.972 16.9254 181.376 15.3233 178.183 15.3233H174.309C171.116 15.3233 169.52 16.9464 169.52 20.1716V24.5139C169.52 24.8934 169.712 25.0831 170.095 25.0831Z" fill="white"/>
<path d="M10.1919 42.1708C9.84924 42.3536 9.55929 42.6933 9.32206 43.0591C9.11119 43.4248 8.82125 43.8429 8.5313 44.287C8.24136 44.7312 7.89869 45.1231 7.58239 45.4627C7.26608 45.8024 6.81799 46.0114 6.26445 46.1159C5.68456 46.2204 5.05195 46.142 4.34027 45.8807L3.52315 45.5933C2.57423 45.2537 1.91526 44.7573 1.5726 44.1041C1.41445 43.8167 1.30901 43.5032 1.28265 43.1897C0.729121 44.6528 0.360099 45.6456 0.122871 46.1681C-0.167075 46.9258 0.0437947 47.2655 0.887274 47.2655H9.05848L9.4275 46.2465C9.50658 46.0636 9.82288 45.9591 10.0338 46.0375L10.3764 46.1681C10.9299 46.3771 11.2726 46.4294 11.5889 46.2988C11.9052 46.1681 12.0634 45.9069 12.2479 45.4105L12.6696 44.2609C12.8541 43.7906 12.9332 43.3465 12.7751 43.0329C12.5905 42.7194 12.327 42.4059 11.7471 42.223L11.299 42.0662C10.9563 41.8834 10.5346 41.9879 10.1919 42.1708ZM4.28755 35.0904C4.26119 35.0904 4.18211 35.0904 4.18211 35.0904C4.15575 35.0904 4.31391 35.1688 4.05032 35.0643L4.02396 35.1166C3.52315 36.5013 3.15412 37.7815 2.73238 38.931C2.96961 38.6959 3.31228 38.513 3.60222 38.3824C4.31391 38.1211 5.2101 38.1211 6.15902 38.4608L6.58076 38.6175C6.79163 38.6959 6.81799 38.9311 6.73891 39.1139L6.34353 40.1851C6.26445 40.368 6.15902 40.4203 5.94815 40.3158L5.71092 40.2374C5.15739 40.0284 4.65657 39.9761 4.34027 40.1068C4.02396 40.2374 3.70766 40.5248 3.52315 40.9951L3.12776 42.0401C2.94325 42.5104 3.02233 42.8762 3.20684 43.1897C3.39135 43.4771 3.83945 43.7122 4.4457 43.9474L5.05195 44.1564C5.63184 44.3654 6.13266 44.1825 6.60712 43.5555C6.81799 43.2681 7.02886 42.9546 7.23973 42.5888C7.4506 42.223 7.68782 41.8834 7.95141 41.5437C8.215 41.2041 8.5313 40.9167 8.84761 40.6554C9.19027 40.4203 9.61201 40.2635 10.1128 40.2113C10.6136 40.159 11.1935 40.2635 11.7998 40.4986L12.5642 40.7861C13.5131 41.1257 14.1721 41.6221 14.5147 42.3014C14.6992 42.6672 14.752 43.0068 14.752 43.4248L16.1226 39.532L16.2017 39.3491L4.39298 35.0382C4.36663 35.0382 4.31391 35.0904 4.28755 35.0904ZM4.60385 33.549C4.84108 33.6273 4.70929 33.5751 4.70929 33.5751L4.78836 33.549C4.81472 33.5751 4.8938 33.549 4.92016 33.549L15.1737 37.2851C15.3055 37.3373 15.2791 37.2851 15.3319 37.1544L16.7816 33.2616C16.8607 33.0787 17.1242 32.9742 17.3615 33.0526L18.3631 33.4183C18.4158 33.4445 18.3631 33.5228 18.3631 33.549L18.6267 32.8174C18.6267 32.8174 18.574 32.7652 18.5213 32.739L7.81962 25.5281C7.79326 25.502 7.79326 25.502 7.7669 25.4758L7.68782 25.4236C7.68782 25.4236 7.87233 25.4758 7.60875 25.3975L4.60385 33.549ZM9.82288 24.8227L9.79652 24.901L15.4373 28.6372L16.5707 25.6065L9.82288 24.8227ZM21.1571 26.1551C21.1308 26.1551 21.0253 26.129 20.9726 26.129L18.1522 25.8155L16.7816 29.4993L19.1012 31.0669C19.1275 31.0931 19.2593 31.1714 19.2593 31.1714L21.1308 26.129C21.1308 26.129 21.1835 26.1551 21.1571 26.1551ZM19.7865 16.3576C19.4438 16.5405 19.1802 16.8018 18.943 17.1676C18.7321 17.5333 18.4422 17.9514 18.1522 18.3955C17.8359 18.8397 17.5196 19.2316 17.2033 19.5712C16.887 19.9109 16.4653 20.0937 15.8854 20.1983C15.3055 20.3028 14.6992 20.1721 13.9612 19.9109L13.1441 19.6235C12.1952 19.2838 11.5098 18.8135 11.1408 18.1604C10.9827 17.8469 10.7982 17.5333 10.7454 17.1937C10.7454 17.1676 10.9036 17.2459 10.6664 17.1414L8.47859 23.0722C8.71581 23.1506 8.5313 23.0983 8.55766 23.0983C8.55766 23.0983 8.61038 23.0983 8.63674 23.1244C8.68946 23.1244 8.74217 23.1506 8.76853 23.1506L21.5789 24.5353C21.6052 24.5353 21.7107 24.5353 21.7107 24.5353L22.8441 21.5307C22.8441 21.5568 22.8704 21.6091 22.8441 21.6091C22.6069 21.8442 22.3433 21.9749 22.027 22.0794C21.3153 22.3668 20.5509 22.2884 19.602 21.9487L19.1012 21.7659C18.8903 21.6875 18.6267 21.6091 18.6794 21.4001L19.0748 20.3289C19.1539 20.146 19.4965 19.9631 19.7338 20.0415L20.0764 20.1721C20.63 20.3811 20.9463 20.4856 21.2626 20.355C21.5789 20.2244 21.737 19.9892 21.8952 19.519L22.3169 18.3694C22.5014 17.8991 22.5541 17.5072 22.396 17.2198C22.2115 16.9063 21.9215 16.6712 21.3416 16.4621L20.8935 16.3054C20.4982 16.1486 20.1291 16.1748 19.7865 16.3576ZM28.8802 2.37988L17.3351 2.35376C17.256 2.35376 17.2033 2.3015 17.1506 2.32763C17.0715 2.32763 16.9925 2.35375 16.9397 2.32763L28.4058 6.50789C28.4321 6.50789 28.5376 6.6124 28.5376 6.6124L29.6183 3.55558C29.9609 2.77178 29.671 2.37988 28.8802 2.37988ZM27.8522 7.97098L22.9495 6.19437C22.8177 6.14211 22.6069 6.29888 22.5805 6.42951L21.2626 9.95661C21.2098 10.0872 21.368 10.0611 21.4998 10.1134L26.4025 11.89C26.4289 11.89 26.4025 11.9945 26.4025 12.0206L27.8522 8.10162C27.8259 8.07549 27.8786 7.97098 27.8522 7.97098ZM14.2511 7.57908C14.4884 7.65746 14.5411 7.55296 14.5675 7.57908L19.4175 9.35569C19.5492 9.40795 19.4438 9.43408 19.4965 9.30344L20.8145 5.77635C20.8672 5.67184 20.999 5.48895 20.8672 5.4367L15.7272 3.55558L14.2511 7.57908ZM24.1884 16.3838C24.3465 16.6712 24.452 17.0108 24.4783 17.3243C24.4783 17.3504 24.4256 17.3766 24.4256 17.4027H24.3729L25.7435 13.6927L25.7699 13.6405L25.7435 13.5621L13.6449 9.14668L12.1952 13.0396C12.4588 13.1179 12.2742 13.0396 12.2742 13.0396C12.5378 12.7783 12.9069 12.5431 13.2495 12.4125C13.9612 12.1512 14.8574 12.099 15.8063 12.4386L16.2281 12.5954C16.4389 12.6738 16.4126 12.9873 16.3598 13.1963L15.9645 14.2675C15.8854 14.4504 15.8063 14.3981 15.5954 14.3198L15.3582 14.2414C14.8047 14.0324 14.2775 14.0324 13.9612 14.163C13.6449 14.2675 13.3286 14.6071 13.1441 15.1036L12.7487 16.1486C12.5642 16.6189 12.6696 16.9586 12.8278 17.2459C13.0123 17.5333 13.4867 17.7423 14.093 17.9514L14.6992 18.1604C15.2791 18.3694 15.78 18.2388 16.2544 17.5856C16.4653 17.2982 16.6498 17.0369 16.8607 16.6712C17.0715 16.3054 17.3088 15.9657 17.5723 15.6261C17.8359 15.2864 18.1522 14.9991 18.4685 14.7378C18.8112 14.5026 19.2329 14.2936 19.7601 14.2675C20.2609 14.2153 20.8408 14.2675 21.4734 14.5026L22.2378 14.79C23.1868 15.1819 23.8457 15.7306 24.1884 16.3838Z" fill="#1BB500"/>
</svg>
