<svg width="185" height="49" viewBox="0 0 185 49" fill="none" xmlns="http://www.w3.org/2000/svg">
<path d="M43.3652 40.0496H40.2065C37.6585 40.0496 35.658 39.319 34.226 37.8786C32.7941 36.4173 32.0781 34.3924 32.0781 31.783V12.3271C32.0781 11.8052 32.3308 11.5547 32.8573 11.5547H35.4053C35.9317 11.5547 36.1844 11.8261 36.1844 12.3271V31.616C36.1844 34.8516 37.7427 36.4799 40.8593 36.4799H44.0812C45.7658 36.4799 47.0714 36.0415 47.9769 35.1439C48.8824 34.2462 49.3246 32.9729 49.3246 31.3446V12.348C49.3246 11.8261 49.5773 11.5756 50.1038 11.5756H52.6307C53.1572 11.5756 53.4099 11.8469 53.4099 12.348V39.2981C53.4099 39.82 53.1361 40.0705 52.6307 40.0705H50.1038C49.5773 40.0705 49.3246 39.82 49.3246 39.2981V37.1271H49.093C48.1875 39.0476 46.2712 40.0496 43.3652 40.0496Z" fill="#353535"/>
<path d="M64.0014 48.2152H61.4745C60.948 48.2152 60.6953 47.9438 60.6953 47.4428V12.3304C60.6953 11.8085 60.948 11.558 61.4745 11.558H64.0014C64.5279 11.558 64.7806 11.8294 64.7806 12.3304V14.5014H65.0122C65.9598 12.5183 67.8761 11.5371 70.761 11.5371H74.1514C76.6994 11.5371 78.6999 12.2677 80.1108 13.7082C81.5217 15.1694 82.2166 17.1943 82.2166 19.8038V31.7654C82.2166 34.3748 81.5217 36.3997 80.1108 37.861C78.6999 39.3223 76.7205 40.032 74.1514 40.032H70.761C67.8761 40.032 65.9388 39.0509 65.0122 37.0677H64.7806V47.4011C64.8016 47.9438 64.5279 48.2152 64.0014 48.2152ZM70.0451 36.4624H73.3722C76.573 36.4624 78.1735 34.8341 78.1735 31.5984V19.9708C78.1735 16.7351 76.573 15.1068 73.3722 15.1068H70.0451C68.3604 15.1068 67.0548 15.5452 66.1493 16.4428C65.2438 17.3405 64.8016 18.6139 64.8016 20.2422V31.3061C64.8016 32.9553 65.2438 34.2078 66.1493 35.1055C67.0548 36.024 68.3604 36.4624 70.0451 36.4624Z" fill="#353535"/>
<path d="M99.7602 40.0518H96.4331C93.8851 40.0518 91.8845 39.3211 90.4526 37.8807C89.0207 36.4194 88.3047 34.3945 88.3047 31.7851V19.8235C88.3047 17.2141 89.0207 15.1892 90.4526 13.7279C91.8845 12.2666 93.864 11.5569 96.4331 11.5569H99.7602C102.687 11.5569 104.625 12.538 105.572 14.5212H105.804V1.55755C105.804 1.03566 106.057 0.785156 106.541 0.785156H109.131C109.615 0.785156 109.868 1.05654 109.868 1.55755V39.3002C109.868 39.8221 109.615 40.0726 109.131 40.0726H106.541C106.057 40.0726 105.804 39.8221 105.804 39.3002V37.1292H105.572C104.625 39.0497 102.687 40.0518 99.7602 40.0518ZM105.804 31.3258V20.2619C105.804 18.6127 105.362 17.3602 104.456 16.4626C103.551 15.5649 102.266 15.1266 100.56 15.1266H97.128C94.0114 15.1266 92.4531 16.7548 92.4531 19.9905V31.6181C92.4531 34.8538 94.0114 36.4821 97.128 36.4821H100.56C102.245 36.4821 103.551 36.0437 104.456 35.146C105.341 34.2275 105.804 32.975 105.804 31.3258Z" fill="#353535"/>
<path d="M127.787 40.0496H124.86C122.27 40.0496 120.227 39.319 118.732 37.8786C117.237 36.4173 116.5 34.3924 116.5 31.783V19.8214C116.5 17.2119 117.237 15.187 118.732 13.7257C120.227 12.2645 122.249 11.5547 124.86 11.5547H137.095C137.621 11.5547 137.874 11.8261 137.874 12.3271V39.2772C137.874 39.7991 137.6 40.0496 137.095 40.0496H134.568C134.041 40.0496 133.789 39.7991 133.789 39.2772V37.1062H133.557C132.609 39.0476 130.672 40.0496 127.787 40.0496ZM133.768 31.3237V15.6254C133.768 15.2914 133.578 15.1244 133.199 15.1244H125.302C122.186 15.1244 120.627 16.7527 120.627 19.9884V31.616C120.627 34.8516 122.186 36.4799 125.302 36.4799H128.524C130.209 36.4799 131.514 36.0415 132.42 35.1439C133.304 34.2254 133.768 32.9729 133.768 31.3237Z" fill="#353535"/>
<path d="M146.172 15.1054H143.076C142.55 15.1054 142.297 14.8549 142.297 14.3747V12.3081C142.297 11.7862 142.55 11.5357 143.076 11.5357H146.172C146.551 11.5357 146.74 11.3687 146.74 11.0347V6.23333C146.74 5.71144 146.993 5.46094 147.519 5.46094H150.046C150.531 5.46094 150.783 5.73232 150.783 6.23333V11.0347C150.783 11.3687 150.994 11.5357 151.394 11.5357H157.374C157.943 11.5357 158.217 11.8071 158.217 12.3081V14.3747C158.217 14.8549 157.943 15.1054 157.374 15.1054H151.394C150.973 15.1054 150.783 15.2724 150.783 15.6064V31.7013C150.783 34.8744 152.447 36.4609 155.753 36.4609H157.943C158.512 36.4609 158.785 36.7323 158.785 37.2333V39.3C158.785 39.7801 158.512 40.0306 157.943 40.0306H155.226C152.636 40.0306 150.573 39.3209 149.014 37.8805C147.477 36.44 146.698 34.436 146.698 31.8683V15.6064C146.74 15.2933 146.551 15.1054 146.172 15.1054Z" fill="#353535"/>
<path d="M183.946 40.0496H171.985C169.395 40.0496 167.352 39.319 165.857 37.8786C164.362 36.4173 163.625 34.3924 163.625 31.783V19.8214C163.625 17.2119 164.362 15.187 165.857 13.7257C167.352 12.2645 169.374 11.5547 171.985 11.5547H176.723C179.313 11.5547 181.356 12.2853 182.809 13.7257C184.283 15.187 184.999 17.2119 184.999 19.8214V26.919C184.999 27.4826 184.725 27.754 184.22 27.754H168.258C167.879 27.754 167.689 27.921 167.689 28.255V31.6577C167.689 34.8934 169.269 36.5217 172.427 36.5217H183.925C184.451 36.5217 184.704 36.7931 184.704 37.2941V39.2981C184.746 39.7991 184.472 40.0496 183.946 40.0496ZM168.279 24.7897H180.45C180.829 24.7897 181.019 24.6018 181.019 24.2261V19.9257C181.019 16.7109 179.44 15.1244 176.281 15.1244H172.448C169.29 15.1244 167.71 16.7318 167.71 19.9257V24.2261C167.71 24.6018 167.9 24.7897 168.279 24.7897Z" fill="#353535"/>
<path d="M10.083 41.709C9.74404 41.8901 9.45719 42.2265 9.2225 42.5887C9.01388 42.9509 8.72703 43.3649 8.44018 43.8048C8.15333 44.2446 7.81433 44.6327 7.5014 44.9691C7.18848 45.3055 6.74516 45.5124 6.19754 45.6159C5.62385 45.7194 4.99799 45.6418 4.29391 45.3831L3.48552 45.0985C2.54674 44.7621 1.89481 44.2705 1.5558 43.6237C1.39934 43.3391 1.29503 43.0286 1.26895 42.7181C0.721333 44.167 0.356253 45.1502 0.121558 45.6677C-0.165291 46.418 0.043327 46.7544 0.877797 46.7544H8.96173L9.32681 45.7453C9.40504 45.5642 9.71797 45.4607 9.92658 45.5383L10.2656 45.6677C10.8132 45.8747 11.1522 45.9264 11.4651 45.7971C11.7781 45.6677 11.9345 45.409 12.1171 44.9174L12.5343 43.7789C12.7168 43.3132 12.7951 42.8733 12.6386 42.5628C12.4561 42.2523 12.1953 41.9419 11.6216 41.7607L11.1783 41.6055C10.8393 41.4244 10.422 41.5279 10.083 41.709ZM4.24175 34.6972C4.21568 34.6972 4.13744 34.6972 4.13744 34.6972C4.11137 34.6972 4.26783 34.7748 4.00706 34.6713L3.98098 34.7231C3.48552 36.0944 3.12043 37.3622 2.7032 38.5006C2.93789 38.2678 3.2769 38.0867 3.56375 37.9573C4.26783 37.6986 5.15446 37.6985 6.09323 38.0349L6.51047 38.1902C6.71909 38.2678 6.74517 38.5006 6.66693 38.6818L6.27578 39.7426C6.19754 39.9237 6.09324 39.9755 5.88462 39.872L5.64992 39.7943C5.1023 39.5873 4.60684 39.5356 4.29391 39.665C3.98098 39.7943 3.66806 40.0789 3.48552 40.5447L3.09436 41.5796C2.91182 42.0454 2.99005 42.4076 3.17259 42.7181C3.35513 43.0027 3.79844 43.2355 4.39822 43.4684L4.99799 43.6754C5.57169 43.8824 6.06716 43.7013 6.53655 43.0803C6.74517 42.7957 6.95378 42.4852 7.1624 42.123C7.37102 41.7607 7.60571 41.4244 7.86648 41.088C8.12726 40.7517 8.44018 40.4671 8.75311 40.2083C9.09211 39.9755 9.50935 39.8202 10.0048 39.7685C10.5003 39.7167 11.074 39.8202 11.6738 40.0531L12.43 40.3377C13.3688 40.674 14.0207 41.1656 14.3597 41.8384C14.5422 42.2006 14.5944 42.537 14.5944 42.9509L15.9504 39.0957L16.0286 38.9146L4.34606 34.6454C4.31999 34.6454 4.26783 34.6972 4.24175 34.6972ZM4.55468 33.1706C4.78938 33.2482 4.65899 33.1965 4.65899 33.1965L4.73722 33.1706C4.7633 33.1965 4.84153 33.1706 4.86761 33.1706L15.0116 36.8706C15.142 36.9223 15.1159 36.8706 15.1681 36.7412L16.6023 32.886C16.6806 32.7049 16.9413 32.6014 17.176 32.679L18.167 33.0413C18.2191 33.0671 18.167 33.1448 18.167 33.1706L18.4277 32.4462C18.4277 32.4462 18.3756 32.3944 18.3234 32.3685L7.7361 25.2274C7.71002 25.2015 7.71002 25.2015 7.68394 25.1756L7.60571 25.1239C7.60571 25.1239 7.78825 25.1756 7.52748 25.098L4.55468 33.1706ZM9.71796 24.5288L9.69189 24.6064L15.2724 28.3063L16.3937 25.305L9.71796 24.5288ZM20.9312 25.8483C20.9051 25.8483 20.8008 25.8225 20.7486 25.8225L17.9584 25.512L16.6023 29.1602L18.8971 30.7126C18.9232 30.7385 19.0536 30.8161 19.0536 30.8161L20.9051 25.8225C20.9051 25.8225 20.9572 25.8483 20.9312 25.8483ZM19.5751 16.1456C19.2361 16.3268 18.9754 16.5855 18.7407 16.9477C18.5321 17.31 18.2452 17.7239 17.9584 18.1638C17.6454 18.6037 17.3325 18.9918 17.0196 19.3281C16.7066 19.6645 16.2894 19.8456 15.7157 19.9491C15.142 20.0526 14.5422 19.9232 13.8121 19.6645L13.0037 19.3799C12.0649 19.0435 11.3869 18.5778 11.0218 17.9309C10.8654 17.6204 10.6828 17.31 10.6307 16.9736C10.6307 16.9477 10.7871 17.0254 10.5524 16.9219L8.38803 22.7952C8.62272 22.8728 8.44018 22.8211 8.46626 22.8211C8.46626 22.8211 8.51841 22.8211 8.54449 22.847C8.59665 22.847 8.6488 22.8728 8.67488 22.8728L21.3484 24.2442C21.3745 24.2442 21.4788 24.2442 21.4788 24.2442L22.6001 21.2687C22.6001 21.2945 22.6262 21.3463 22.6001 21.3463C22.3654 21.5791 22.1046 21.7085 21.7917 21.812C21.0876 22.0966 20.3314 22.019 19.3926 21.6826L18.8971 21.5015C18.6885 21.4239 18.4277 21.3463 18.4799 21.1393L18.8711 20.0785C18.9493 19.8973 19.2883 19.7162 19.523 19.7938L19.862 19.9232C20.4096 20.1302 20.7225 20.2337 21.0355 20.1043C21.3484 19.975 21.5049 19.7421 21.6613 19.2764L22.0786 18.1379C22.2611 17.6722 22.3132 17.2841 22.1568 16.9995C21.9742 16.689 21.6874 16.4561 21.1137 16.2491L20.6704 16.0939C20.2792 15.9386 19.9141 15.9645 19.5751 16.1456ZM28.5718 2.30314L17.15 2.27726C17.0717 2.27726 17.0196 2.22551 16.9674 2.25139C16.8892 2.25139 16.811 2.27726 16.7588 2.25139L28.1024 6.3912C28.1285 6.3912 28.2328 6.49469 28.2328 6.49469L29.3019 3.46746C29.6409 2.69124 29.3541 2.30314 28.5718 2.30314ZM27.5548 7.84014L22.7044 6.08071C22.574 6.02896 22.3654 6.18421 22.3393 6.31358L21.0355 9.80655C20.9833 9.93592 21.1398 9.91004 21.2702 9.96179L26.1205 11.7212C26.1466 11.7212 26.1205 11.8247 26.1205 11.8506L27.5548 7.96951C27.5287 7.94363 27.5808 7.84014 27.5548 7.84014ZM14.0989 7.45203C14.3336 7.52965 14.3858 7.42616 14.4119 7.45203L19.2101 9.21145C19.3404 9.2632 19.2361 9.28907 19.2883 9.1597L20.5922 5.66674C20.6443 5.56324 20.7747 5.38212 20.6443 5.33037L15.5593 3.46746L14.0989 7.45203ZM23.93 16.1715C24.0865 16.4561 24.1908 16.7925 24.2169 17.103C24.2169 17.1288 24.1647 17.1547 24.1647 17.1806H24.1126L25.4686 13.5065L25.4947 13.4548L25.4686 13.3771L13.4992 9.00446L12.0649 12.8597C12.3257 12.9373 12.1431 12.8597 12.1431 12.8597C12.4039 12.6009 12.769 12.3681 13.108 12.2387C13.8121 11.98 14.6987 11.9282 15.6375 12.2646L16.0547 12.4198C16.2633 12.4974 16.2373 12.8079 16.1851 13.0149L15.794 14.0757C15.7157 14.2569 15.6375 14.2051 15.4289 14.1275L15.1942 14.0499C14.6466 13.8429 14.125 13.8429 13.8121 13.9722C13.4992 14.0757 13.1862 14.4121 13.0037 14.9037L12.6125 15.9386C12.43 16.4044 12.5343 16.7407 12.6908 17.0254C12.8733 17.31 13.3427 17.5169 13.9425 17.7239L14.5422 17.9309C15.1159 18.1379 15.6114 18.0086 16.0808 17.3617C16.2894 17.0771 16.472 16.8184 16.6806 16.4561C16.8892 16.0939 17.1239 15.7575 17.3847 15.4212C17.6454 15.0848 17.9584 14.8002 18.2713 14.5415C18.6103 14.3086 19.0275 14.1016 19.5491 14.0757C20.0445 14.024 20.6182 14.0757 21.2441 14.3086L22.0003 14.5932C22.9391 14.9813 23.591 15.5247 23.93 16.1715Z" fill="#1BB500"/>
</svg>
