<svg width="132" height="74" viewBox="0 0 132 74" fill="none" xmlns="http://www.w3.org/2000/svg">
<path d="M23.7833 29.1667L38.0068 0H47.5205V35H41.5862V5.83334L27.0801 35H20.4393L5.93322 5.88V35H-0.00109863V0H9.51264L23.7833 29.1667Z" fill="#353535"/>
<path d="M62.651 20.0667L61.0968 29.68H84.9989V35H54.197L57.0228 17.5L54.197 0H84.7634V5.32H61.0968L62.651 14.9333H83.6331V20.0667H62.651Z" fill="#353535"/>
<path d="M85.085 66.3194V38H91.0929V73.3403H83.2076L61.0067 44.6911V73.3403H54.9989V38H63.0719L85.085 66.3194Z" fill="#353535"/>
<path d="M104.682 58.1675C104.682 60.2565 105.104 62.0785 105.949 63.6335C106.794 65.1728 108.007 66.3586 109.587 67.1911C111.183 68.0236 113.068 68.4398 115.243 68.4398C117.433 68.4398 119.318 68.0236 120.898 67.1911C122.479 66.3586 123.691 65.1728 124.536 63.6335C125.381 62.0785 125.803 60.2565 125.803 58.1675V38H131.999V58.4031C131.999 61.4817 131.295 64.199 129.887 66.555C128.494 68.911 126.531 70.7408 123.996 72.0445C121.462 73.3482 118.544 74 115.243 74C111.941 74 109.024 73.3482 106.489 72.0445C103.955 70.7408 101.983 68.911 100.575 66.555C99.1827 64.199 98.4864 61.4817 98.4864 58.4031V38H104.682V58.1675Z" fill="#353535"/>
</svg>
