<svg width="123" height="74" viewBox="0 0 123 74" fill="none" xmlns="http://www.w3.org/2000/svg">
<path d="M30.6472 17.136C33.7129 17.68 36.0078 18.752 37.5318 20.352C39.0558 21.936 39.8178 23.872 39.8178 26.16C39.8178 28.096 39.3127 29.808 38.3026 31.296C37.2925 32.768 35.7863 33.92 33.7838 34.752C31.7991 35.584 29.3979 36 26.5803 36H-0.00109863L3.1355 17.52L-0.00109863 0H25.6233C28.0688 0 30.151 0.351999 31.87 1.056C33.6066 1.744 34.9179 2.744 35.804 4.056C36.7078 5.368 37.1596 6.928 37.1596 8.736C37.1596 10.528 36.628 12.176 35.5648 13.68C34.5015 15.184 32.8623 16.336 30.6472 17.136ZM30.089 9.6C30.089 8.24 29.5574 7.152 28.4941 6.336C27.4486 5.504 25.9778 5.088 24.0816 5.088H7.65433L9.46186 15.072H23.55C24.8259 15.072 25.9512 14.856 26.9258 14.424C27.9182 13.992 28.689 13.368 29.2384 12.552C29.8055 11.72 30.089 10.736 30.089 9.6ZM25.7828 30.912C27.9802 30.912 29.6903 30.456 30.913 29.544C32.1358 28.632 32.7471 27.328 32.7471 25.632C32.7471 23.84 32.0206 22.448 30.5675 21.456C29.1143 20.464 27.0056 19.968 24.2411 19.968H9.46186L7.62775 30.912H25.7828Z" fill="#353535"/>
<path d="M87.4275 36H79.9315L75.6519 27.744H52.154L47.8744 36H40.3785L59.5171 0H68.2889L87.4275 36ZM63.903 5.016L54.8653 22.512H72.9406L63.903 5.016Z" fill="#353535"/>
<path d="M81.3353 59.6093C81.0035 62.4473 79.9846 64.9537 78.2784 67.1285C76.5723 69.3033 74.3132 70.9923 71.5012 72.1954C68.6892 73.3985 65.5218 74 61.9989 74C58.0494 74 54.5581 73.2519 51.5249 71.7558C48.5076 70.2442 46.1616 68.1311 44.487 65.4165C42.8283 62.6864 41.9989 59.5476 41.9989 56C41.9989 52.4524 42.8283 49.3213 44.487 46.6067C46.1616 43.8766 48.5076 41.7635 51.5249 40.2674C54.5581 38.7558 58.0494 38 61.9989 38C65.5218 38 68.6892 38.6015 71.5012 39.8046C74.3132 41.0077 76.5723 42.6967 78.2784 44.8715C79.9846 47.0463 81.0035 49.5527 81.3353 52.3907H75.032C74.6844 50.5553 73.9341 48.9666 72.7808 47.6247C71.6276 46.2828 70.1268 45.2571 68.2785 44.5476C66.4301 43.8226 64.3211 43.4602 61.9515 43.4602C59.1869 43.4602 56.7777 43.9692 54.724 44.9871C52.6861 46.0051 51.1142 47.4627 50.0084 49.3599C48.9025 51.2416 48.3496 53.455 48.3496 56C48.3496 58.545 48.9025 60.7661 50.0084 62.6632C51.1142 64.545 52.6861 65.9949 54.724 67.0128C56.7777 68.0308 59.1869 68.5398 61.9515 68.5398C64.3369 68.5398 66.4459 68.1851 68.2785 67.4756C70.1268 66.7661 71.6276 65.7404 72.7808 64.3985C73.9341 63.0566 74.6844 61.4602 75.032 59.6093H81.3353Z" fill="#353535"/>
<path d="M109.516 53.4087L122.525 73.3522H115.369L105.487 58.1979L92.6675 73.3522H87.0751V38.6478H93.331V64.7918L115.227 38.6478H122.004L109.516 53.4087Z" fill="#353535"/>
</svg>
