<svg width="419" height="503" viewBox="0 0 419 503" fill="none" xmlns="http://www.w3.org/2000/svg">
<circle cx="180" cy="323" r="180" fill="#F2F2F2"/>
<g clip-path="url(#clip0_58_1594)">
<path d="M135.658 15.3158C139.887 15.3158 143.316 11.8872 143.316 7.6579C143.316 3.42856 139.887 0 135.658 0C131.429 0 128 3.42856 128 7.6579C128 11.8872 131.429 15.3158 135.658 15.3158Z" fill="#F2F2F2"/>
<path d="M170.119 15.3158C174.348 15.3158 177.777 11.8872 177.777 7.6579C177.777 3.42856 174.348 0 170.119 0C165.889 0 162.461 3.42856 162.461 7.6579C162.461 11.8872 165.889 15.3158 170.119 15.3158Z" fill="#F2F2F2"/>
<path d="M204.58 15.3158C208.809 15.3158 212.238 11.8872 212.238 7.6579C212.238 3.42856 208.809 0 204.58 0C200.35 0 196.922 3.42856 196.922 7.6579C196.922 11.8872 200.35 15.3158 204.58 15.3158Z" fill="#F2F2F2"/>
<path d="M239.041 15.3158C243.27 15.3158 246.699 11.8872 246.699 7.6579C246.699 3.42856 243.27 0 239.041 0C234.811 0 231.383 3.42856 231.383 7.6579C231.383 11.8872 234.811 15.3158 239.041 15.3158Z" fill="#F2F2F2"/>
<path d="M273.5 15.3158C277.729 15.3158 281.158 11.8872 281.158 7.6579C281.158 3.42856 277.729 0 273.5 0C269.27 0 265.842 3.42856 265.842 7.6579C265.842 11.8872 269.27 15.3158 273.5 15.3158Z" fill="#F2F2F2"/>
<path d="M307.961 15.3158C312.19 15.3158 315.619 11.8872 315.619 7.6579C315.619 3.42856 312.19 0 307.961 0C303.731 0 300.303 3.42856 300.303 7.6579C300.303 11.8872 303.731 15.3158 307.961 15.3158Z" fill="#F2F2F2"/>
<path d="M342.42 15.3158C346.649 15.3158 350.078 11.8872 350.078 7.6579C350.078 3.42856 346.649 0 342.42 0C338.19 0 334.762 3.42856 334.762 7.6579C334.762 11.8872 338.19 15.3158 342.42 15.3158Z" fill="#F2F2F2"/>
<path d="M376.883 15.3158C381.112 15.3158 384.54 11.8872 384.54 7.6579C384.54 3.42856 381.112 0 376.883 0C372.653 0 369.225 3.42856 369.225 7.6579C369.225 11.8872 372.653 15.3158 376.883 15.3158Z" fill="#F2F2F2"/>
<path d="M411.341 15.3158C415.571 15.3158 418.999 11.8872 418.999 7.6579C418.999 3.42856 415.571 0 411.341 0C407.112 0 403.684 3.42856 403.684 7.6579C403.684 11.8872 407.112 15.3158 411.341 15.3158Z" fill="#F2F2F2"/>
<path d="M135.658 49.7767C139.887 49.7767 143.316 46.3482 143.316 42.1188C143.316 37.8895 139.887 34.4609 135.658 34.4609C131.429 34.4609 128 37.8895 128 42.1188C128 46.3482 131.429 49.7767 135.658 49.7767Z" fill="#F2F2F2"/>
<path d="M170.119 49.7767C174.348 49.7767 177.777 46.3482 177.777 42.1188C177.777 37.8895 174.348 34.4609 170.119 34.4609C165.889 34.4609 162.461 37.8895 162.461 42.1188C162.461 46.3482 165.889 49.7767 170.119 49.7767Z" fill="#F2F2F2"/>
<path d="M204.58 49.7767C208.809 49.7767 212.238 46.3482 212.238 42.1188C212.238 37.8895 208.809 34.4609 204.58 34.4609C200.35 34.4609 196.922 37.8895 196.922 42.1188C196.922 46.3482 200.35 49.7767 204.58 49.7767Z" fill="#F2F2F2"/>
<path d="M239.041 49.7767C243.27 49.7767 246.699 46.3482 246.699 42.1188C246.699 37.8895 243.27 34.4609 239.041 34.4609C234.811 34.4609 231.383 37.8895 231.383 42.1188C231.383 46.3482 234.811 49.7767 239.041 49.7767Z" fill="#F2F2F2"/>
<path d="M273.5 49.7767C277.729 49.7767 281.158 46.3482 281.158 42.1188C281.158 37.8895 277.729 34.4609 273.5 34.4609C269.27 34.4609 265.842 37.8895 265.842 42.1188C265.842 46.3482 269.27 49.7767 273.5 49.7767Z" fill="#F2F2F2"/>
<path d="M307.961 49.7767C312.19 49.7767 315.619 46.3482 315.619 42.1188C315.619 37.8895 312.19 34.4609 307.961 34.4609C303.731 34.4609 300.303 37.8895 300.303 42.1188C300.303 46.3482 303.731 49.7767 307.961 49.7767Z" fill="#F2F2F2"/>
<path d="M342.42 49.7767C346.649 49.7767 350.078 46.3482 350.078 42.1188C350.078 37.8895 346.649 34.4609 342.42 34.4609C338.19 34.4609 334.762 37.8895 334.762 42.1188C334.762 46.3482 338.19 49.7767 342.42 49.7767Z" fill="#F2F2F2"/>
<path d="M376.881 49.7767C381.11 49.7767 384.538 46.3482 384.538 42.1188C384.538 37.8895 381.11 34.4609 376.881 34.4609C372.651 34.4609 369.223 37.8895 369.223 42.1188C369.223 46.3482 372.651 49.7767 376.881 49.7767Z" fill="#F2F2F2"/>
<path d="M411.341 49.7767C415.571 49.7767 418.999 46.3482 418.999 42.1188C418.999 37.8895 415.571 34.4609 411.341 34.4609C407.112 34.4609 403.684 37.8895 403.684 42.1188C403.684 46.3482 407.112 49.7767 411.341 49.7767Z" fill="#F2F2F2"/>
<path d="M135.658 84.2377C139.887 84.2377 143.316 80.8091 143.316 76.5798C143.316 72.3504 139.887 68.9219 135.658 68.9219C131.429 68.9219 128 72.3504 128 76.5798C128 80.8091 131.429 84.2377 135.658 84.2377Z" fill="#F2F2F2"/>
<path d="M170.119 84.2377C174.348 84.2377 177.777 80.8091 177.777 76.5798C177.777 72.3504 174.348 68.9219 170.119 68.9219C165.889 68.9219 162.461 72.3504 162.461 76.5798C162.461 80.8091 165.889 84.2377 170.119 84.2377Z" fill="#F2F2F2"/>
<path d="M204.58 84.2377C208.809 84.2377 212.238 80.8091 212.238 76.5798C212.238 72.3504 208.809 68.9219 204.58 68.9219C200.35 68.9219 196.922 72.3504 196.922 76.5798C196.922 80.8091 200.35 84.2377 204.58 84.2377Z" fill="#F2F2F2"/>
<path d="M239.041 84.2377C243.27 84.2377 246.699 80.8091 246.699 76.5798C246.699 72.3504 243.27 68.9219 239.041 68.9219C234.811 68.9219 231.383 72.3504 231.383 76.5798C231.383 80.8091 234.811 84.2377 239.041 84.2377Z" fill="#F2F2F2"/>
<path d="M273.5 84.2377C277.729 84.2377 281.158 80.8091 281.158 76.5798C281.158 72.3504 277.729 68.9219 273.5 68.9219C269.27 68.9219 265.842 72.3504 265.842 76.5798C265.842 80.8091 269.27 84.2377 273.5 84.2377Z" fill="#F2F2F2"/>
<path d="M307.961 84.2377C312.19 84.2377 315.619 80.8091 315.619 76.5798C315.619 72.3504 312.19 68.9219 307.961 68.9219C303.731 68.9219 300.303 72.3504 300.303 76.5798C300.303 80.8091 303.731 84.2377 307.961 84.2377Z" fill="#F2F2F2"/>
<path d="M342.42 84.2377C346.649 84.2377 350.078 80.8091 350.078 76.5798C350.078 72.3504 346.649 68.9219 342.42 68.9219C338.19 68.9219 334.762 72.3504 334.762 76.5798C334.762 80.8091 338.19 84.2377 342.42 84.2377Z" fill="#F2F2F2"/>
<path d="M376.881 84.2377C381.11 84.2377 384.538 80.8091 384.538 76.5798C384.538 72.3504 381.11 68.9219 376.881 68.9219C372.651 68.9219 369.223 72.3504 369.223 76.5798C369.223 80.8091 372.651 84.2377 376.881 84.2377Z" fill="#F2F2F2"/>
<path d="M411.341 84.2377C415.571 84.2377 418.999 80.8091 418.999 76.5798C418.999 72.3504 415.571 68.9219 411.341 68.9219C407.112 68.9219 403.684 72.3504 403.684 76.5798C403.684 80.8091 407.112 84.2377 411.341 84.2377Z" fill="#F2F2F2"/>
<path d="M135.658 118.699C139.887 118.699 143.316 115.27 143.316 111.041C143.316 106.811 139.887 103.383 135.658 103.383C131.429 103.383 128 106.811 128 111.041C128 115.27 131.429 118.699 135.658 118.699Z" fill="#F2F2F2"/>
<path d="M170.119 118.699C174.348 118.699 177.777 115.27 177.777 111.041C177.777 106.811 174.348 103.383 170.119 103.383C165.889 103.383 162.461 106.811 162.461 111.041C162.461 115.27 165.889 118.699 170.119 118.699Z" fill="#F2F2F2"/>
<path d="M204.58 118.699C208.809 118.699 212.238 115.27 212.238 111.041C212.238 106.811 208.809 103.383 204.58 103.383C200.35 103.383 196.922 106.811 196.922 111.041C196.922 115.27 200.35 118.699 204.58 118.699Z" fill="#F2F2F2"/>
<path d="M239.041 118.699C243.27 118.699 246.699 115.27 246.699 111.041C246.699 106.811 243.27 103.383 239.041 103.383C234.811 103.383 231.383 106.811 231.383 111.041C231.383 115.27 234.811 118.699 239.041 118.699Z" fill="#F2F2F2"/>
<path d="M273.5 118.699C277.729 118.699 281.158 115.27 281.158 111.041C281.158 106.811 277.729 103.383 273.5 103.383C269.27 103.383 265.842 106.811 265.842 111.041C265.842 115.27 269.27 118.699 273.5 118.699Z" fill="#F2F2F2"/>
<path d="M307.961 118.699C312.19 118.699 315.619 115.27 315.619 111.041C315.619 106.811 312.19 103.383 307.961 103.383C303.731 103.383 300.303 106.811 300.303 111.041C300.303 115.27 303.731 118.699 307.961 118.699Z" fill="#F2F2F2"/>
<path d="M342.42 118.699C346.649 118.699 350.078 115.27 350.078 111.041C350.078 106.811 346.649 103.383 342.42 103.383C338.19 103.383 334.762 106.811 334.762 111.041C334.762 115.27 338.19 118.699 342.42 118.699Z" fill="#F2F2F2"/>
<path d="M376.881 118.699C381.11 118.699 384.538 115.27 384.538 111.041C384.538 106.811 381.11 103.383 376.881 103.383C372.651 103.383 369.223 106.811 369.223 111.041C369.223 115.27 372.651 118.699 376.881 118.699Z" fill="#F2F2F2"/>
<path d="M411.341 118.699C415.571 118.699 418.999 115.27 418.999 111.041C418.999 106.811 415.571 103.383 411.341 103.383C407.112 103.383 403.684 106.811 403.684 111.041C403.684 115.27 407.112 118.699 411.341 118.699Z" fill="#F2F2F2"/>
<path d="M135.658 153.16C139.887 153.16 143.316 149.731 143.316 145.502C143.316 141.272 139.887 137.844 135.658 137.844C131.429 137.844 128 141.272 128 145.502C128 149.731 131.429 153.16 135.658 153.16Z" fill="#F2F2F2"/>
<path d="M170.119 153.16C174.348 153.16 177.777 149.731 177.777 145.502C177.777 141.272 174.348 137.844 170.119 137.844C165.889 137.844 162.461 141.272 162.461 145.502C162.461 149.731 165.889 153.16 170.119 153.16Z" fill="#353535"/>
<path d="M204.58 153.16C208.809 153.16 212.238 149.731 212.238 145.502C212.238 141.272 208.809 137.844 204.58 137.844C200.35 137.844 196.922 141.272 196.922 145.502C196.922 149.731 200.35 153.16 204.58 153.16Z" fill="#353535"/>
<path d="M239.041 153.16C243.27 153.16 246.699 149.731 246.699 145.502C246.699 141.272 243.27 137.844 239.041 137.844C234.811 137.844 231.383 141.272 231.383 145.502C231.383 149.731 234.811 153.16 239.041 153.16Z" fill="#F2F2F2"/>
<path d="M273.5 153.16C277.729 153.16 281.158 149.731 281.158 145.502C281.158 141.272 277.729 137.844 273.5 137.844C269.27 137.844 265.842 141.272 265.842 145.502C265.842 149.731 269.27 153.16 273.5 153.16Z" fill="#F2F2F2"/>
<path d="M307.961 153.16C312.19 153.16 315.619 149.731 315.619 145.502C315.619 141.272 312.19 137.844 307.961 137.844C303.731 137.844 300.303 141.272 300.303 145.502C300.303 149.731 303.731 153.16 307.961 153.16Z" fill="#F2F2F2"/>
<path d="M342.42 153.16C346.649 153.16 350.078 149.731 350.078 145.502C350.078 141.272 346.649 137.844 342.42 137.844C338.19 137.844 334.762 141.272 334.762 145.502C334.762 149.731 338.19 153.16 342.42 153.16Z" fill="#F2F2F2"/>
<path d="M376.881 153.16C381.11 153.16 384.538 149.731 384.538 145.502C384.538 141.272 381.11 137.844 376.881 137.844C372.651 137.844 369.223 141.272 369.223 145.502C369.223 149.731 372.651 153.16 376.881 153.16Z" fill="#F2F2F2"/>
<path d="M411.341 153.16C415.571 153.16 418.999 149.731 418.999 145.502C418.999 141.272 415.571 137.844 411.341 137.844C407.112 137.844 403.684 141.272 403.684 145.502C403.684 149.731 407.112 153.16 411.341 153.16Z" fill="#F2F2F2"/>
<path d="M135.658 187.617C139.887 187.617 143.316 184.188 143.316 179.959C143.316 175.729 139.887 172.301 135.658 172.301C131.429 172.301 128 175.729 128 179.959C128 184.188 131.429 187.617 135.658 187.617Z" fill="#353535"/>
<path d="M170.119 187.617C174.348 187.617 177.777 184.188 177.777 179.959C177.777 175.729 174.348 172.301 170.119 172.301C165.889 172.301 162.461 175.729 162.461 179.959C162.461 184.188 165.889 187.617 170.119 187.617Z" fill="#353535"/>
<path d="M204.58 187.617C208.809 187.617 212.238 184.188 212.238 179.959C212.238 175.729 208.809 172.301 204.58 172.301C200.35 172.301 196.922 175.729 196.922 179.959C196.922 184.188 200.35 187.617 204.58 187.617Z" fill="#353535"/>
<path d="M239.041 187.617C243.27 187.617 246.699 184.188 246.699 179.959C246.699 175.729 243.27 172.301 239.041 172.301C234.811 172.301 231.383 175.729 231.383 179.959C231.383 184.188 234.811 187.617 239.041 187.617Z" fill="#353535"/>
<path d="M273.5 187.617C277.729 187.617 281.158 184.188 281.158 179.959C281.158 175.729 277.729 172.301 273.5 172.301C269.27 172.301 265.842 175.729 265.842 179.959C265.842 184.188 269.27 187.617 273.5 187.617Z" fill="#353535"/>
<path d="M307.961 187.617C312.19 187.617 315.619 184.188 315.619 179.959C315.619 175.729 312.19 172.301 307.961 172.301C303.731 172.301 300.303 175.729 300.303 179.959C300.303 184.188 303.731 187.617 307.961 187.617Z" fill="#F2F2F2"/>
<path d="M342.42 187.617C346.649 187.617 350.078 184.188 350.078 179.959C350.078 175.729 346.649 172.301 342.42 172.301C338.19 172.301 334.762 175.729 334.762 179.959C334.762 184.188 338.19 187.617 342.42 187.617Z" fill="#F2F2F2"/>
<path d="M376.881 187.617C381.11 187.617 384.538 184.188 384.538 179.959C384.538 175.729 381.11 172.301 376.881 172.301C372.651 172.301 369.223 175.729 369.223 179.959C369.223 184.188 372.651 187.617 376.881 187.617Z" fill="#F2F2F2"/>
<path d="M411.341 187.617C415.571 187.617 418.999 184.188 418.999 179.959C418.999 175.729 415.571 172.301 411.341 172.301C407.112 172.301 403.684 175.729 403.684 179.959C403.684 184.188 407.112 187.617 411.341 187.617Z" fill="#F2F2F2"/>
<path d="M135.658 222.078C139.887 222.078 143.316 218.649 143.316 214.42C143.316 210.19 139.887 206.762 135.658 206.762C131.429 206.762 128 210.19 128 214.42C128 218.649 131.429 222.078 135.658 222.078Z" fill="#353535"/>
<path d="M170.119 222.078C174.348 222.078 177.777 218.649 177.777 214.42C177.777 210.19 174.348 206.762 170.119 206.762C165.889 206.762 162.461 210.19 162.461 214.42C162.461 218.649 165.889 222.078 170.119 222.078Z" fill="#353535"/>
<path d="M204.58 222.078C208.809 222.078 212.238 218.649 212.238 214.42C212.238 210.19 208.809 206.762 204.58 206.762C200.35 206.762 196.922 210.19 196.922 214.42C196.922 218.649 200.35 222.078 204.58 222.078Z" fill="#353535"/>
<path d="M239.041 222.078C243.27 222.078 246.699 218.649 246.699 214.42C246.699 210.19 243.27 206.762 239.041 206.762C234.811 206.762 231.383 210.19 231.383 214.42C231.383 218.649 234.811 222.078 239.041 222.078Z" fill="#353535"/>
<path d="M273.5 222.078C277.729 222.078 281.158 218.649 281.158 214.42C281.158 210.19 277.729 206.762 273.5 206.762C269.27 206.762 265.842 210.19 265.842 214.42C265.842 218.649 269.27 222.078 273.5 222.078Z" fill="#353535"/>
<path d="M307.961 222.078C312.19 222.078 315.619 218.649 315.619 214.42C315.619 210.19 312.19 206.762 307.961 206.762C303.731 206.762 300.303 210.19 300.303 214.42C300.303 218.649 303.731 222.078 307.961 222.078Z" fill="#353535"/>
<path d="M342.42 222.078C346.649 222.078 350.078 218.649 350.078 214.42C350.078 210.19 346.649 206.762 342.42 206.762C338.19 206.762 334.762 210.19 334.762 214.42C334.762 218.649 338.19 222.078 342.42 222.078Z" fill="#F2F2F2"/>
<path d="M376.881 222.078C381.11 222.078 384.538 218.649 384.538 214.42C384.538 210.19 381.11 206.762 376.881 206.762C372.651 206.762 369.223 210.19 369.223 214.42C369.223 218.649 372.651 222.078 376.881 222.078Z" fill="#F2F2F2"/>
<path d="M411.341 222.078C415.571 222.078 418.999 218.649 418.999 214.42C418.999 210.19 415.571 206.762 411.341 206.762C407.112 206.762 403.684 210.19 403.684 214.42C403.684 218.649 407.112 222.078 411.341 222.078Z" fill="#F2F2F2"/>
<path d="M135.658 256.538C139.887 256.538 143.316 253.11 143.316 248.881C143.316 244.651 139.887 241.223 135.658 241.223C131.429 241.223 128 244.651 128 248.881C128 253.11 131.429 256.538 135.658 256.538Z" fill="#353535"/>
<path d="M170.119 256.538C174.348 256.538 177.777 253.11 177.777 248.881C177.777 244.651 174.348 241.223 170.119 241.223C165.889 241.223 162.461 244.651 162.461 248.881C162.461 253.11 165.889 256.538 170.119 256.538Z" fill="#353535"/>
<path d="M204.58 256.538C208.809 256.538 212.238 253.11 212.238 248.881C212.238 244.651 208.809 241.223 204.58 241.223C200.35 241.223 196.922 244.651 196.922 248.881C196.922 253.11 200.35 256.538 204.58 256.538Z" fill="#353535"/>
<path d="M239.041 256.538C243.27 256.538 246.699 253.11 246.699 248.881C246.699 244.651 243.27 241.223 239.041 241.223C234.811 241.223 231.383 244.651 231.383 248.881C231.383 253.11 234.811 256.538 239.041 256.538Z" fill="#353535"/>
<path d="M273.5 256.538C277.729 256.538 281.158 253.11 281.158 248.881C281.158 244.651 277.729 241.223 273.5 241.223C269.27 241.223 265.842 244.651 265.842 248.881C265.842 253.11 269.27 256.538 273.5 256.538Z" fill="#353535"/>
<path d="M307.961 256.538C312.19 256.538 315.619 253.11 315.619 248.881C315.619 244.651 312.19 241.223 307.961 241.223C303.731 241.223 300.303 244.651 300.303 248.881C300.303 253.11 303.731 256.538 307.961 256.538Z" fill="#353535"/>
<path d="M342.42 256.538C346.649 256.538 350.078 253.11 350.078 248.881C350.078 244.651 346.649 241.223 342.42 241.223C338.19 241.223 334.762 244.651 334.762 248.881C334.762 253.11 338.19 256.538 342.42 256.538Z" fill="#353535"/>
<path d="M376.881 256.538C381.11 256.538 384.538 253.11 384.538 248.881C384.538 244.651 381.11 241.223 376.881 241.223C372.651 241.223 369.223 244.651 369.223 248.881C369.223 253.11 372.651 256.538 376.881 256.538Z" fill="#F2F2F2"/>
<path d="M411.341 256.538C415.571 256.538 418.999 253.11 418.999 248.881C418.999 244.651 415.571 241.223 411.341 241.223C407.112 241.223 403.684 244.651 403.684 248.881C403.684 253.11 407.112 256.538 411.341 256.538Z" fill="#F2F2F2"/>
<path d="M135.658 290.999C139.887 290.999 143.316 287.571 143.316 283.341C143.316 279.112 139.887 275.684 135.658 275.684C131.429 275.684 128 279.112 128 283.341C128 287.571 131.429 290.999 135.658 290.999Z" fill="#353535"/>
<path d="M170.119 290.999C174.348 290.999 177.777 287.571 177.777 283.341C177.777 279.112 174.348 275.684 170.119 275.684C165.889 275.684 162.461 279.112 162.461 283.341C162.461 287.571 165.889 290.999 170.119 290.999Z" fill="#353535"/>
<path d="M204.58 290.999C208.809 290.999 212.238 287.571 212.238 283.341C212.238 279.112 208.809 275.684 204.58 275.684C200.35 275.684 196.922 279.112 196.922 283.341C196.922 287.571 200.35 290.999 204.58 290.999Z" fill="#353535"/>
<path d="M239.041 290.999C243.27 290.999 246.699 287.571 246.699 283.341C246.699 279.112 243.27 275.684 239.041 275.684C234.811 275.684 231.383 279.112 231.383 283.341C231.383 287.571 234.811 290.999 239.041 290.999Z" fill="#353535"/>
<path d="M273.5 290.999C277.729 290.999 281.158 287.571 281.158 283.341C281.158 279.112 277.729 275.684 273.5 275.684C269.27 275.684 265.842 279.112 265.842 283.341C265.842 287.571 269.27 290.999 273.5 290.999Z" fill="#353535"/>
<path d="M307.961 290.999C312.19 290.999 315.619 287.571 315.619 283.341C315.619 279.112 312.19 275.684 307.961 275.684C303.731 275.684 300.303 279.112 300.303 283.341C300.303 287.571 303.731 290.999 307.961 290.999Z" fill="#353535"/>
<path d="M342.42 290.999C346.649 290.999 350.078 287.571 350.078 283.341C350.078 279.112 346.649 275.684 342.42 275.684C338.19 275.684 334.762 279.112 334.762 283.341C334.762 287.571 338.19 290.999 342.42 290.999Z" fill="#353535"/>
<path d="M376.881 290.999C381.11 290.999 384.538 287.571 384.538 283.341C384.538 279.112 381.11 275.684 376.881 275.684C372.651 275.684 369.223 279.112 369.223 283.341C369.223 287.571 372.651 290.999 376.881 290.999Z" fill="#F2F2F2"/>
<path d="M411.341 290.999C415.571 290.999 418.999 287.571 418.999 283.341C418.999 279.112 415.571 275.684 411.341 275.684C407.112 275.684 403.684 279.112 403.684 283.341C403.684 287.571 407.112 290.999 411.341 290.999Z" fill="#F2F2F2"/>
</g>
<defs>
<clipPath id="clip0_58_1594">
<rect width="291" height="291" fill="white" transform="translate(128)"/>
</clipPath>
</defs>
</svg>
