<svg width="291" height="291" viewBox="0 0 291 291" fill="none" xmlns="http://www.w3.org/2000/svg">
<g clip-path="url(#clip0_0_167)">
<path d="M7.6579 15.3158C11.8872 15.3158 15.3158 11.8872 15.3158 7.6579C15.3158 3.42856 11.8872 0 7.6579 0C3.42856 0 0 3.42856 0 7.6579C0 11.8872 3.42856 15.3158 7.6579 15.3158Z" fill="#F2F2F2"/>
<path d="M42.1188 15.3158C46.3482 15.3158 49.7767 11.8872 49.7767 7.6579C49.7767 3.42856 46.3482 0 42.1188 0C37.8895 0 34.4609 3.42856 34.4609 7.6579C34.4609 11.8872 37.8895 15.3158 42.1188 15.3158Z" fill="#F2F2F2"/>
<path d="M76.5798 15.3158C80.8091 15.3158 84.2377 11.8872 84.2377 7.6579C84.2377 3.42856 80.8091 0 76.5798 0C72.3504 0 68.9219 3.42856 68.9219 7.6579C68.9219 11.8872 72.3504 15.3158 76.5798 15.3158Z" fill="#F2F2F2"/>
<path d="M111.041 15.3158C115.27 15.3158 118.699 11.8872 118.699 7.6579C118.699 3.42856 115.27 0 111.041 0C106.811 0 103.383 3.42856 103.383 7.6579C103.383 11.8872 106.811 15.3158 111.041 15.3158Z" fill="#F2F2F2"/>
<path d="M145.5 15.3158C149.729 15.3158 153.158 11.8872 153.158 7.6579C153.158 3.42856 149.729 0 145.5 0C141.27 0 137.842 3.42856 137.842 7.6579C137.842 11.8872 141.27 15.3158 145.5 15.3158Z" fill="#F2F2F2"/>
<path d="M179.961 15.3158C184.19 15.3158 187.618 11.8872 187.618 7.6579C187.618 3.42856 184.19 0 179.961 0C175.731 0 172.303 3.42856 172.303 7.6579C172.303 11.8872 175.731 15.3158 179.961 15.3158Z" fill="#F2F2F2"/>
<path d="M214.42 15.3158C218.649 15.3158 222.078 11.8872 222.078 7.6579C222.078 3.42856 218.649 0 214.42 0C210.19 0 206.762 3.42856 206.762 7.6579C206.762 11.8872 210.19 15.3158 214.42 15.3158Z" fill="#F2F2F2"/>
<path d="M248.883 15.3158C253.112 15.3158 256.54 11.8872 256.54 7.6579C256.54 3.42856 253.112 0 248.883 0C244.653 0 241.225 3.42856 241.225 7.6579C241.225 11.8872 244.653 15.3158 248.883 15.3158Z" fill="#F2F2F2"/>
<path d="M283.341 15.3158C287.571 15.3158 290.999 11.8872 290.999 7.6579C290.999 3.42856 287.571 0 283.341 0C279.112 0 275.684 3.42856 275.684 7.6579C275.684 11.8872 279.112 15.3158 283.341 15.3158Z" fill="#F2F2F2"/>
<path d="M7.6579 49.7767C11.8872 49.7767 15.3158 46.3482 15.3158 42.1188C15.3158 37.8895 11.8872 34.4609 7.6579 34.4609C3.42856 34.4609 0 37.8895 0 42.1188C0 46.3482 3.42856 49.7767 7.6579 49.7767Z" fill="#F2F2F2"/>
<path d="M42.1188 49.7767C46.3482 49.7767 49.7767 46.3482 49.7767 42.1188C49.7767 37.8895 46.3482 34.4609 42.1188 34.4609C37.8895 34.4609 34.4609 37.8895 34.4609 42.1188C34.4609 46.3482 37.8895 49.7767 42.1188 49.7767Z" fill="#F2F2F2"/>
<path d="M76.5798 49.7767C80.8091 49.7767 84.2377 46.3482 84.2377 42.1188C84.2377 37.8895 80.8091 34.4609 76.5798 34.4609C72.3504 34.4609 68.9219 37.8895 68.9219 42.1188C68.9219 46.3482 72.3504 49.7767 76.5798 49.7767Z" fill="#F2F2F2"/>
<path d="M111.041 49.7767C115.27 49.7767 118.699 46.3482 118.699 42.1188C118.699 37.8895 115.27 34.4609 111.041 34.4609C106.811 34.4609 103.383 37.8895 103.383 42.1188C103.383 46.3482 106.811 49.7767 111.041 49.7767Z" fill="#F2F2F2"/>
<path d="M145.5 49.7767C149.729 49.7767 153.158 46.3482 153.158 42.1188C153.158 37.8895 149.729 34.4609 145.5 34.4609C141.27 34.4609 137.842 37.8895 137.842 42.1188C137.842 46.3482 141.27 49.7767 145.5 49.7767Z" fill="#F2F2F2"/>
<path d="M179.961 49.7767C184.19 49.7767 187.619 46.3482 187.619 42.1188C187.619 37.8895 184.19 34.4609 179.961 34.4609C175.731 34.4609 172.303 37.8895 172.303 42.1188C172.303 46.3482 175.731 49.7767 179.961 49.7767Z" fill="#F2F2F2"/>
<path d="M214.42 49.7767C218.649 49.7767 222.078 46.3482 222.078 42.1188C222.078 37.8895 218.649 34.4609 214.42 34.4609C210.19 34.4609 206.762 37.8895 206.762 42.1188C206.762 46.3482 210.19 49.7767 214.42 49.7767Z" fill="#F2F2F2"/>
<path d="M248.881 49.7767C253.11 49.7767 256.538 46.3482 256.538 42.1188C256.538 37.8895 253.11 34.4609 248.881 34.4609C244.651 34.4609 241.223 37.8895 241.223 42.1188C241.223 46.3482 244.651 49.7767 248.881 49.7767Z" fill="#F2F2F2"/>
<path d="M283.341 49.7767C287.571 49.7767 290.999 46.3482 290.999 42.1188C290.999 37.8895 287.571 34.4609 283.341 34.4609C279.112 34.4609 275.684 37.8895 275.684 42.1188C275.684 46.3482 279.112 49.7767 283.341 49.7767Z" fill="#F2F2F2"/>
<path d="M7.6579 84.2377C11.8872 84.2377 15.3158 80.8091 15.3158 76.5798C15.3158 72.3504 11.8872 68.9219 7.6579 68.9219C3.42856 68.9219 0 72.3504 0 76.5798C0 80.8091 3.42856 84.2377 7.6579 84.2377Z" fill="#F2F2F2"/>
<path d="M42.1188 84.2377C46.3482 84.2377 49.7767 80.8091 49.7767 76.5798C49.7767 72.3504 46.3482 68.9219 42.1188 68.9219C37.8895 68.9219 34.4609 72.3504 34.4609 76.5798C34.4609 80.8091 37.8895 84.2377 42.1188 84.2377Z" fill="#F2F2F2"/>
<path d="M76.5798 84.2377C80.8091 84.2377 84.2377 80.8091 84.2377 76.5798C84.2377 72.3504 80.8091 68.9219 76.5798 68.9219C72.3504 68.9219 68.9219 72.3504 68.9219 76.5798C68.9219 80.8091 72.3504 84.2377 76.5798 84.2377Z" fill="#F2F2F2"/>
<path d="M111.041 84.2377C115.27 84.2377 118.699 80.8091 118.699 76.5798C118.699 72.3504 115.27 68.9219 111.041 68.9219C106.811 68.9219 103.383 72.3504 103.383 76.5798C103.383 80.8091 106.811 84.2377 111.041 84.2377Z" fill="#F2F2F2"/>
<path d="M145.5 84.2377C149.729 84.2377 153.158 80.8091 153.158 76.5798C153.158 72.3504 149.729 68.9219 145.5 68.9219C141.27 68.9219 137.842 72.3504 137.842 76.5798C137.842 80.8091 141.27 84.2377 145.5 84.2377Z" fill="#F2F2F2"/>
<path d="M179.961 84.2377C184.19 84.2377 187.619 80.8091 187.619 76.5798C187.619 72.3504 184.19 68.9219 179.961 68.9219C175.731 68.9219 172.303 72.3504 172.303 76.5798C172.303 80.8091 175.731 84.2377 179.961 84.2377Z" fill="#F2F2F2"/>
<path d="M214.42 84.2377C218.649 84.2377 222.078 80.8091 222.078 76.5798C222.078 72.3504 218.649 68.9219 214.42 68.9219C210.19 68.9219 206.762 72.3504 206.762 76.5798C206.762 80.8091 210.19 84.2377 214.42 84.2377Z" fill="#F2F2F2"/>
<path d="M248.881 84.2377C253.11 84.2377 256.538 80.8091 256.538 76.5798C256.538 72.3504 253.11 68.9219 248.881 68.9219C244.651 68.9219 241.223 72.3504 241.223 76.5798C241.223 80.8091 244.651 84.2377 248.881 84.2377Z" fill="#F2F2F2"/>
<path d="M283.341 84.2377C287.571 84.2377 290.999 80.8091 290.999 76.5798C290.999 72.3504 287.571 68.9219 283.341 68.9219C279.112 68.9219 275.684 72.3504 275.684 76.5798C275.684 80.8091 279.112 84.2377 283.341 84.2377Z" fill="#F2F2F2"/>
<path d="M7.6579 118.699C11.8872 118.699 15.3158 115.27 15.3158 111.041C15.3158 106.811 11.8872 103.383 7.6579 103.383C3.42856 103.383 0 106.811 0 111.041C0 115.27 3.42856 118.699 7.6579 118.699Z" fill="#F2F2F2"/>
<path d="M42.1188 118.699C46.3482 118.699 49.7767 115.27 49.7767 111.041C49.7767 106.811 46.3482 103.383 42.1188 103.383C37.8895 103.383 34.4609 106.811 34.4609 111.041C34.4609 115.27 37.8895 118.699 42.1188 118.699Z" fill="#F2F2F2"/>
<path d="M76.5798 118.699C80.8091 118.699 84.2377 115.27 84.2377 111.041C84.2377 106.811 80.8091 103.383 76.5798 103.383C72.3504 103.383 68.9219 106.811 68.9219 111.041C68.9219 115.27 72.3504 118.699 76.5798 118.699Z" fill="#F2F2F2"/>
<path d="M111.041 118.699C115.27 118.699 118.699 115.27 118.699 111.041C118.699 106.811 115.27 103.383 111.041 103.383C106.811 103.383 103.383 106.811 103.383 111.041C103.383 115.27 106.811 118.699 111.041 118.699Z" fill="#F2F2F2"/>
<path d="M145.5 118.699C149.729 118.699 153.158 115.27 153.158 111.041C153.158 106.811 149.729 103.383 145.5 103.383C141.27 103.383 137.842 106.811 137.842 111.041C137.842 115.27 141.27 118.699 145.5 118.699Z" fill="#F2F2F2"/>
<path d="M179.961 118.699C184.19 118.699 187.619 115.27 187.619 111.041C187.619 106.811 184.19 103.383 179.961 103.383C175.731 103.383 172.303 106.811 172.303 111.041C172.303 115.27 175.731 118.699 179.961 118.699Z" fill="#F2F2F2"/>
<path d="M214.42 118.699C218.649 118.699 222.078 115.27 222.078 111.041C222.078 106.811 218.649 103.383 214.42 103.383C210.19 103.383 206.762 106.811 206.762 111.041C206.762 115.27 210.19 118.699 214.42 118.699Z" fill="#F2F2F2"/>
<path d="M248.881 118.699C253.11 118.699 256.538 115.27 256.538 111.041C256.538 106.811 253.11 103.383 248.881 103.383C244.651 103.383 241.223 106.811 241.223 111.041C241.223 115.27 244.651 118.699 248.881 118.699Z" fill="#F2F2F2"/>
<path d="M283.341 118.699C287.571 118.699 290.999 115.27 290.999 111.041C290.999 106.811 287.571 103.383 283.341 103.383C279.112 103.383 275.684 106.811 275.684 111.041C275.684 115.27 279.112 118.699 283.341 118.699Z" fill="#F2F2F2"/>
<path d="M7.6579 153.16C11.8872 153.16 15.3158 149.731 15.3158 145.502C15.3158 141.272 11.8872 137.844 7.6579 137.844C3.42856 137.844 0 141.272 0 145.502C0 149.731 3.42856 153.16 7.6579 153.16Z" fill="#F2F2F2"/>
<path d="M42.1188 153.16C46.3482 153.16 49.7767 149.731 49.7767 145.502C49.7767 141.272 46.3482 137.844 42.1188 137.844C37.8895 137.844 34.4609 141.272 34.4609 145.502C34.4609 149.731 37.8895 153.16 42.1188 153.16Z" fill="#F2F2F2"/>
<path d="M76.5798 153.16C80.8091 153.16 84.2377 149.731 84.2377 145.502C84.2377 141.272 80.8091 137.844 76.5798 137.844C72.3504 137.844 68.9219 141.272 68.9219 145.502C68.9219 149.731 72.3504 153.16 76.5798 153.16Z" fill="#F2F2F2"/>
<path d="M111.041 153.16C115.27 153.16 118.699 149.731 118.699 145.502C118.699 141.272 115.27 137.844 111.041 137.844C106.811 137.844 103.383 141.272 103.383 145.502C103.383 149.731 106.811 153.16 111.041 153.16Z" fill="#F2F2F2"/>
<path d="M145.5 153.16C149.729 153.16 153.158 149.731 153.158 145.502C153.158 141.272 149.729 137.844 145.5 137.844C141.27 137.844 137.842 141.272 137.842 145.502C137.842 149.731 141.27 153.16 145.5 153.16Z" fill="#F2F2F2"/>
<path d="M179.961 153.16C184.19 153.16 187.619 149.731 187.619 145.502C187.619 141.272 184.19 137.844 179.961 137.844C175.731 137.844 172.303 141.272 172.303 145.502C172.303 149.731 175.731 153.16 179.961 153.16Z" fill="#F2F2F2"/>
<path d="M214.42 153.16C218.649 153.16 222.078 149.731 222.078 145.502C222.078 141.272 218.649 137.844 214.42 137.844C210.19 137.844 206.762 141.272 206.762 145.502C206.762 149.731 210.19 153.16 214.42 153.16Z" fill="#F2F2F2"/>
<path d="M248.881 153.16C253.11 153.16 256.538 149.731 256.538 145.502C256.538 141.272 253.11 137.844 248.881 137.844C244.651 137.844 241.223 141.272 241.223 145.502C241.223 149.731 244.651 153.16 248.881 153.16Z" fill="#F2F2F2"/>
<path d="M283.341 153.16C287.571 153.16 290.999 149.731 290.999 145.502C290.999 141.272 287.571 137.844 283.341 137.844C279.112 137.844 275.684 141.272 275.684 145.502C275.684 149.731 279.112 153.16 283.341 153.16Z" fill="#F2F2F2"/>
<path d="M7.6579 187.617C11.8872 187.617 15.3158 184.188 15.3158 179.959C15.3158 175.729 11.8872 172.301 7.6579 172.301C3.42856 172.301 0 175.729 0 179.959C0 184.188 3.42856 187.617 7.6579 187.617Z" fill="#F2F2F2"/>
<path d="M42.1188 187.617C46.3482 187.617 49.7767 184.188 49.7767 179.959C49.7767 175.729 46.3482 172.301 42.1188 172.301C37.8895 172.301 34.4609 175.729 34.4609 179.959C34.4609 184.188 37.8895 187.617 42.1188 187.617Z" fill="#F2F2F2"/>
<path d="M76.5798 187.617C80.8091 187.617 84.2377 184.188 84.2377 179.959C84.2377 175.729 80.8091 172.301 76.5798 172.301C72.3504 172.301 68.9219 175.729 68.9219 179.959C68.9219 184.188 72.3504 187.617 76.5798 187.617Z" fill="#F2F2F2"/>
<path d="M111.041 187.617C115.27 187.617 118.699 184.188 118.699 179.959C118.699 175.729 115.27 172.301 111.041 172.301C106.811 172.301 103.383 175.729 103.383 179.959C103.383 184.188 106.811 187.617 111.041 187.617Z" fill="#F2F2F2"/>
<path d="M145.5 187.617C149.729 187.617 153.158 184.188 153.158 179.959C153.158 175.729 149.729 172.301 145.5 172.301C141.27 172.301 137.842 175.729 137.842 179.959C137.842 184.188 141.27 187.617 145.5 187.617Z" fill="#F2F2F2"/>
<path d="M179.961 187.617C184.19 187.617 187.619 184.188 187.619 179.959C187.619 175.729 184.19 172.301 179.961 172.301C175.731 172.301 172.303 175.729 172.303 179.959C172.303 184.188 175.731 187.617 179.961 187.617Z" fill="#F2F2F2"/>
<path d="M214.42 187.617C218.649 187.617 222.078 184.188 222.078 179.959C222.078 175.729 218.649 172.301 214.42 172.301C210.19 172.301 206.762 175.729 206.762 179.959C206.762 184.188 210.19 187.617 214.42 187.617Z" fill="#F2F2F2"/>
<path d="M248.881 187.617C253.11 187.617 256.538 184.188 256.538 179.959C256.538 175.729 253.11 172.301 248.881 172.301C244.651 172.301 241.223 175.729 241.223 179.959C241.223 184.188 244.651 187.617 248.881 187.617Z" fill="#F2F2F2"/>
<path d="M283.341 187.617C287.571 187.617 290.999 184.188 290.999 179.959C290.999 175.729 287.571 172.301 283.341 172.301C279.112 172.301 275.684 175.729 275.684 179.959C275.684 184.188 279.112 187.617 283.341 187.617Z" fill="#F2F2F2"/>
<path d="M7.6579 222.078C11.8872 222.078 15.3158 218.649 15.3158 214.42C15.3158 210.19 11.8872 206.762 7.6579 206.762C3.42856 206.762 0 210.19 0 214.42C0 218.649 3.42856 222.078 7.6579 222.078Z" fill="#F2F2F2"/>
<path d="M42.1188 222.078C46.3482 222.078 49.7767 218.649 49.7767 214.42C49.7767 210.19 46.3482 206.762 42.1188 206.762C37.8895 206.762 34.4609 210.19 34.4609 214.42C34.4609 218.649 37.8895 222.078 42.1188 222.078Z" fill="#F2F2F2"/>
<path d="M76.5798 222.078C80.8091 222.078 84.2377 218.649 84.2377 214.42C84.2377 210.19 80.8091 206.762 76.5798 206.762C72.3504 206.762 68.9219 210.19 68.9219 214.42C68.9219 218.649 72.3504 222.078 76.5798 222.078Z" fill="#F2F2F2"/>
<path d="M111.041 222.078C115.27 222.078 118.699 218.649 118.699 214.42C118.699 210.19 115.27 206.762 111.041 206.762C106.811 206.762 103.383 210.19 103.383 214.42C103.383 218.649 106.811 222.078 111.041 222.078Z" fill="#F2F2F2"/>
<path d="M145.5 222.078C149.729 222.078 153.158 218.649 153.158 214.42C153.158 210.19 149.729 206.762 145.5 206.762C141.27 206.762 137.842 210.19 137.842 214.42C137.842 218.649 141.27 222.078 145.5 222.078Z" fill="#F2F2F2"/>
<path d="M179.961 222.078C184.19 222.078 187.619 218.649 187.619 214.42C187.619 210.19 184.19 206.762 179.961 206.762C175.731 206.762 172.303 210.19 172.303 214.42C172.303 218.649 175.731 222.078 179.961 222.078Z" fill="#F2F2F2"/>
<path d="M214.42 222.078C218.649 222.078 222.078 218.649 222.078 214.42C222.078 210.19 218.649 206.762 214.42 206.762C210.19 206.762 206.762 210.19 206.762 214.42C206.762 218.649 210.19 222.078 214.42 222.078Z" fill="#F2F2F2"/>
<path d="M248.881 222.078C253.11 222.078 256.538 218.649 256.538 214.42C256.538 210.19 253.11 206.762 248.881 206.762C244.651 206.762 241.223 210.19 241.223 214.42C241.223 218.649 244.651 222.078 248.881 222.078Z" fill="#F2F2F2"/>
<path d="M283.341 222.078C287.571 222.078 290.999 218.649 290.999 214.42C290.999 210.19 287.571 206.762 283.341 206.762C279.112 206.762 275.684 210.19 275.684 214.42C275.684 218.649 279.112 222.078 283.341 222.078Z" fill="#F2F2F2"/>
<path d="M7.6579 256.538C11.8872 256.538 15.3158 253.11 15.3158 248.881C15.3158 244.651 11.8872 241.223 7.6579 241.223C3.42856 241.223 0 244.651 0 248.881C0 253.11 3.42856 256.538 7.6579 256.538Z" fill="#F2F2F2"/>
<path d="M42.1188 256.538C46.3482 256.538 49.7767 253.11 49.7767 248.881C49.7767 244.651 46.3482 241.223 42.1188 241.223C37.8895 241.223 34.4609 244.651 34.4609 248.881C34.4609 253.11 37.8895 256.538 42.1188 256.538Z" fill="#F2F2F2"/>
<path d="M76.5798 256.538C80.8091 256.538 84.2377 253.11 84.2377 248.881C84.2377 244.651 80.8091 241.223 76.5798 241.223C72.3504 241.223 68.9219 244.651 68.9219 248.881C68.9219 253.11 72.3504 256.538 76.5798 256.538Z" fill="#F2F2F2"/>
<path d="M111.041 256.538C115.27 256.538 118.699 253.11 118.699 248.881C118.699 244.651 115.27 241.223 111.041 241.223C106.811 241.223 103.383 244.651 103.383 248.881C103.383 253.11 106.811 256.538 111.041 256.538Z" fill="#F2F2F2"/>
<path d="M145.5 256.538C149.729 256.538 153.158 253.11 153.158 248.881C153.158 244.651 149.729 241.223 145.5 241.223C141.27 241.223 137.842 244.651 137.842 248.881C137.842 253.11 141.27 256.538 145.5 256.538Z" fill="#F2F2F2"/>
<path d="M179.961 256.538C184.19 256.538 187.619 253.11 187.619 248.881C187.619 244.651 184.19 241.223 179.961 241.223C175.731 241.223 172.303 244.651 172.303 248.881C172.303 253.11 175.731 256.538 179.961 256.538Z" fill="#F2F2F2"/>
<path d="M214.42 256.538C218.649 256.538 222.078 253.11 222.078 248.881C222.078 244.651 218.649 241.223 214.42 241.223C210.19 241.223 206.762 244.651 206.762 248.881C206.762 253.11 210.19 256.538 214.42 256.538Z" fill="#F2F2F2"/>
<path d="M248.881 256.538C253.11 256.538 256.538 253.11 256.538 248.881C256.538 244.651 253.11 241.223 248.881 241.223C244.651 241.223 241.223 244.651 241.223 248.881C241.223 253.11 244.651 256.538 248.881 256.538Z" fill="#F2F2F2"/>
<path d="M283.341 256.538C287.571 256.538 290.999 253.11 290.999 248.881C290.999 244.651 287.571 241.223 283.341 241.223C279.112 241.223 275.684 244.651 275.684 248.881C275.684 253.11 279.112 256.538 283.341 256.538Z" fill="#F2F2F2"/>
<path d="M7.6579 290.999C11.8872 290.999 15.3158 287.571 15.3158 283.341C15.3158 279.112 11.8872 275.684 7.6579 275.684C3.42856 275.684 0 279.112 0 283.341C0 287.571 3.42856 290.999 7.6579 290.999Z" fill="#F2F2F2"/>
<path d="M42.1188 290.999C46.3482 290.999 49.7767 287.571 49.7767 283.341C49.7767 279.112 46.3482 275.684 42.1188 275.684C37.8895 275.684 34.4609 279.112 34.4609 283.341C34.4609 287.571 37.8895 290.999 42.1188 290.999Z" fill="#F2F2F2"/>
<path d="M76.5798 290.999C80.8091 290.999 84.2377 287.571 84.2377 283.341C84.2377 279.112 80.8091 275.684 76.5798 275.684C72.3504 275.684 68.9219 279.112 68.9219 283.341C68.9219 287.571 72.3504 290.999 76.5798 290.999Z" fill="#F2F2F2"/>
<path d="M111.041 290.999C115.27 290.999 118.699 287.571 118.699 283.341C118.699 279.112 115.27 275.684 111.041 275.684C106.811 275.684 103.383 279.112 103.383 283.341C103.383 287.571 106.811 290.999 111.041 290.999Z" fill="#F2F2F2"/>
<path d="M145.5 290.999C149.729 290.999 153.158 287.571 153.158 283.341C153.158 279.112 149.729 275.684 145.5 275.684C141.27 275.684 137.842 279.112 137.842 283.341C137.842 287.571 141.27 290.999 145.5 290.999Z" fill="#F2F2F2"/>
<path d="M179.961 290.999C184.19 290.999 187.619 287.571 187.619 283.341C187.619 279.112 184.19 275.684 179.961 275.684C175.731 275.684 172.303 279.112 172.303 283.341C172.303 287.571 175.731 290.999 179.961 290.999Z" fill="#F2F2F2"/>
<path d="M214.42 290.999C218.649 290.999 222.078 287.571 222.078 283.341C222.078 279.112 218.649 275.684 214.42 275.684C210.19 275.684 206.762 279.112 206.762 283.341C206.762 287.571 210.19 290.999 214.42 290.999Z" fill="#F2F2F2"/>
<path d="M248.881 290.999C253.11 290.999 256.538 287.571 256.538 283.341C256.538 279.112 253.11 275.684 248.881 275.684C244.651 275.684 241.223 279.112 241.223 283.341C241.223 287.571 244.651 290.999 248.881 290.999Z" fill="#F2F2F2"/>
<path d="M283.341 290.999C287.571 290.999 290.999 287.571 290.999 283.341C290.999 279.112 287.571 275.684 283.341 275.684C279.112 275.684 275.684 279.112 275.684 283.341C275.684 287.571 279.112 290.999 283.341 290.999Z" fill="#F2F2F2"/>
</g>
<defs>
<clipPath id="clip0_0_167">
<rect width="291" height="291" fill="white"/>
</clipPath>
</defs>
</svg>
