<svg width="419" height="419" viewBox="0 0 419 419" fill="none" xmlns="http://www.w3.org/2000/svg">
<g clip-path="url(#clip0_0_61)">
<path d="M11.0263 22.0526C17.116 22.0526 22.0526 17.116 22.0526 11.0263C22.0526 4.93665 17.116 0 11.0263 0C4.93665 0 0 4.93665 0 11.0263C0 17.116 4.93665 22.0526 11.0263 22.0526Z" fill="#78DC65"/>
<path d="M60.6435 22.0526C66.7332 22.0526 71.6698 17.116 71.6698 11.0263C71.6698 4.93665 66.7332 0 60.6435 0C54.5538 0 49.6172 4.93665 49.6172 11.0263C49.6172 17.116 54.5538 22.0526 60.6435 22.0526Z" fill="#78DC65"/>
<path d="M110.265 22.0526C116.354 22.0526 121.291 17.116 121.291 11.0263C121.291 4.93665 116.354 0 110.265 0C104.175 0 99.2383 4.93665 99.2383 11.0263C99.2383 17.116 104.175 22.0526 110.265 22.0526Z" fill="#78DC65"/>
<path d="M159.882 22.0526C165.971 22.0526 170.908 17.116 170.908 11.0263C170.908 4.93665 165.971 0 159.882 0C153.792 0 148.855 4.93665 148.855 11.0263C148.855 17.116 153.792 22.0526 159.882 22.0526Z" fill="#78DC65"/>
<path d="M209.501 22.0526C215.591 22.0526 220.527 17.116 220.527 11.0263C220.527 4.93665 215.591 0 209.501 0C203.411 0 198.475 4.93665 198.475 11.0263C198.475 17.116 203.411 22.0526 209.501 22.0526Z" fill="#78DC65"/>
<path d="M259.118 22.0526C265.208 22.0526 270.144 17.116 270.144 11.0263C270.144 4.93665 265.208 0 259.118 0C253.028 0 248.092 4.93665 248.092 11.0263C248.092 17.116 253.028 22.0526 259.118 22.0526Z" fill="#78DC65"/>
<path d="M308.737 22.0526C314.827 22.0526 319.764 17.116 319.764 11.0263C319.764 4.93665 314.827 0 308.737 0C302.648 0 297.711 4.93665 297.711 11.0263C297.711 17.116 302.648 22.0526 308.737 22.0526Z" fill="#78DC65"/>
<path d="M358.354 22.0526C364.444 22.0526 369.381 17.116 369.381 11.0263C369.381 4.93665 364.444 0 358.354 0C352.265 0 347.328 4.93665 347.328 11.0263C347.328 17.116 352.265 22.0526 358.354 22.0526Z" fill="#78DC65"/>
<path d="M407.974 22.0526C414.063 22.0526 419 17.116 419 11.0263C419 4.93665 414.063 0 407.974 0C401.884 0 396.947 4.93665 396.947 11.0263C396.947 17.116 401.884 22.0526 407.974 22.0526Z" fill="#78DC65"/>
<path d="M11.0263 71.6698C17.116 71.6698 22.0526 66.7332 22.0526 60.6435C22.0526 54.5538 17.116 49.6172 11.0263 49.6172C4.93665 49.6172 0 54.5538 0 60.6435C0 66.7332 4.93665 71.6698 11.0263 71.6698Z" fill="#78DC65"/>
<path d="M60.6435 71.6698C66.7332 71.6698 71.6698 66.7332 71.6698 60.6435C71.6698 54.5538 66.7332 49.6172 60.6435 49.6172C54.5538 49.6172 49.6172 54.5538 49.6172 60.6435C49.6172 66.7332 54.5538 71.6698 60.6435 71.6698Z" fill="#78DC65"/>
<path d="M110.265 71.6698C116.354 71.6698 121.291 66.7332 121.291 60.6435C121.291 54.5538 116.354 49.6172 110.265 49.6172C104.175 49.6172 99.2383 54.5538 99.2383 60.6435C99.2383 66.7332 104.175 71.6698 110.265 71.6698Z" fill="#78DC65"/>
<path d="M159.882 71.6698C165.971 71.6698 170.908 66.7332 170.908 60.6435C170.908 54.5538 165.971 49.6172 159.882 49.6172C153.792 49.6172 148.855 54.5538 148.855 60.6435C148.855 66.7332 153.792 71.6698 159.882 71.6698Z" fill="#78DC65"/>
<path d="M209.499 71.6698C215.589 71.6698 220.525 66.7332 220.525 60.6435C220.525 54.5538 215.589 49.6172 209.499 49.6172C203.409 49.6172 198.473 54.5538 198.473 60.6435C198.473 66.7332 203.409 71.6698 209.499 71.6698Z" fill="#78DC65"/>
<path d="M259.118 71.6698C265.208 71.6698 270.144 66.7332 270.144 60.6435C270.144 54.5538 265.208 49.6172 259.118 49.6172C253.028 49.6172 248.092 54.5538 248.092 60.6435C248.092 66.7332 253.028 71.6698 259.118 71.6698Z" fill="#78DC65"/>
<path d="M308.737 71.6698C314.827 71.6698 319.764 66.7332 319.764 60.6435C319.764 54.5538 314.827 49.6172 308.737 49.6172C302.648 49.6172 297.711 54.5538 297.711 60.6435C297.711 66.7332 302.648 71.6698 308.737 71.6698Z" fill="#78DC65"/>
<path d="M358.354 71.6698C364.444 71.6698 369.381 66.7332 369.381 60.6435C369.381 54.5538 364.444 49.6172 358.354 49.6172C352.265 49.6172 347.328 54.5538 347.328 60.6435C347.328 66.7332 352.265 71.6698 358.354 71.6698Z" fill="#78DC65"/>
<path d="M407.974 71.6698C414.063 71.6698 419 66.7332 419 60.6435C419 54.5538 414.063 49.6172 407.974 49.6172C401.884 49.6172 396.947 54.5538 396.947 60.6435C396.947 66.7332 401.884 71.6698 407.974 71.6698Z" fill="#78DC65"/>
<path d="M11.0263 121.291C17.116 121.291 22.0526 116.354 22.0526 110.265C22.0526 104.175 17.116 99.2383 11.0263 99.2383C4.93665 99.2383 0 104.175 0 110.265C0 116.354 4.93665 121.291 11.0263 121.291Z" fill="#78DC65"/>
<path d="M60.6435 121.291C66.7332 121.291 71.6698 116.354 71.6698 110.265C71.6698 104.175 66.7332 99.2383 60.6435 99.2383C54.5538 99.2383 49.6172 104.175 49.6172 110.265C49.6172 116.354 54.5538 121.291 60.6435 121.291Z" fill="#78DC65"/>
<path d="M110.265 121.291C116.354 121.291 121.291 116.354 121.291 110.265C121.291 104.175 116.354 99.2383 110.265 99.2383C104.175 99.2383 99.2383 104.175 99.2383 110.265C99.2383 116.354 104.175 121.291 110.265 121.291Z" fill="#78DC65"/>
<path d="M159.882 121.291C165.971 121.291 170.908 116.354 170.908 110.265C170.908 104.175 165.971 99.2383 159.882 99.2383C153.792 99.2383 148.855 104.175 148.855 110.265C148.855 116.354 153.792 121.291 159.882 121.291Z" fill="#78DC65"/>
<path d="M209.499 121.291C215.589 121.291 220.525 116.354 220.525 110.265C220.525 104.175 215.589 99.2383 209.499 99.2383C203.409 99.2383 198.473 104.175 198.473 110.265C198.473 116.354 203.409 121.291 209.499 121.291Z" fill="#78DC65"/>
<path d="M259.118 121.291C265.208 121.291 270.144 116.354 270.144 110.265C270.144 104.175 265.208 99.2383 259.118 99.2383C253.028 99.2383 248.092 104.175 248.092 110.265C248.092 116.354 253.028 121.291 259.118 121.291Z" fill="#78DC65"/>
<path d="M308.737 121.291C314.827 121.291 319.764 116.354 319.764 110.265C319.764 104.175 314.827 99.2383 308.737 99.2383C302.648 99.2383 297.711 104.175 297.711 110.265C297.711 116.354 302.648 121.291 308.737 121.291Z" fill="#78DC65"/>
<path d="M358.354 121.291C364.444 121.291 369.381 116.354 369.381 110.265C369.381 104.175 364.444 99.2383 358.354 99.2383C352.265 99.2383 347.328 104.175 347.328 110.265C347.328 116.354 352.265 121.291 358.354 121.291Z" fill="#78DC65"/>
<path d="M407.974 121.291C414.063 121.291 419 116.354 419 110.265C419 104.175 414.063 99.2383 407.974 99.2383C401.884 99.2383 396.947 104.175 396.947 110.265C396.947 116.354 401.884 121.291 407.974 121.291Z" fill="#78DC65"/>
<path d="M11.0263 170.908C17.116 170.908 22.0526 165.971 22.0526 159.882C22.0526 153.792 17.116 148.855 11.0263 148.855C4.93665 148.855 0 153.792 0 159.882C0 165.971 4.93665 170.908 11.0263 170.908Z" fill="#78DC65"/>
<path d="M60.6435 170.908C66.7332 170.908 71.6698 165.971 71.6698 159.882C71.6698 153.792 66.7332 148.855 60.6435 148.855C54.5538 148.855 49.6172 153.792 49.6172 159.882C49.6172 165.971 54.5538 170.908 60.6435 170.908Z" fill="#78DC65"/>
<path d="M110.265 170.908C116.354 170.908 121.291 165.971 121.291 159.882C121.291 153.792 116.354 148.855 110.265 148.855C104.175 148.855 99.2383 153.792 99.2383 159.882C99.2383 165.971 104.175 170.908 110.265 170.908Z" fill="#78DC65"/>
<path d="M159.882 170.908C165.971 170.908 170.908 165.971 170.908 159.882C170.908 153.792 165.971 148.855 159.882 148.855C153.792 148.855 148.855 153.792 148.855 159.882C148.855 165.971 153.792 170.908 159.882 170.908Z" fill="#78DC65"/>
<path d="M209.501 170.908C215.591 170.908 220.527 165.971 220.527 159.882C220.527 153.792 215.591 148.855 209.501 148.855C203.411 148.855 198.475 153.792 198.475 159.882C198.475 165.971 203.411 170.908 209.501 170.908Z" fill="#78DC65"/>
<path d="M259.118 170.908C265.208 170.908 270.144 165.971 270.144 159.882C270.144 153.792 265.208 148.855 259.118 148.855C253.028 148.855 248.092 153.792 248.092 159.882C248.092 165.971 253.028 170.908 259.118 170.908Z" fill="#78DC65"/>
<path d="M308.737 170.908C314.827 170.908 319.764 165.971 319.764 159.882C319.764 153.792 314.827 148.855 308.737 148.855C302.648 148.855 297.711 153.792 297.711 159.882C297.711 165.971 302.648 170.908 308.737 170.908Z" fill="#78DC65"/>
<path d="M358.354 170.908C364.444 170.908 369.381 165.971 369.381 159.882C369.381 153.792 364.444 148.855 358.354 148.855C352.265 148.855 347.328 153.792 347.328 159.882C347.328 165.971 352.265 170.908 358.354 170.908Z" fill="#78DC65"/>
<path d="M407.974 170.908C414.063 170.908 419 165.971 419 159.882C419 153.792 414.063 148.855 407.974 148.855C401.884 148.855 396.947 153.792 396.947 159.882C396.947 165.971 401.884 170.908 407.974 170.908Z" fill="#78DC65"/>
<path d="M11.0263 220.525C17.116 220.525 22.0526 215.589 22.0526 209.499C22.0526 203.409 17.116 198.473 11.0263 198.473C4.93665 198.473 0 203.409 0 209.499C0 215.589 4.93665 220.525 11.0263 220.525Z" fill="#78DC65"/>
<path d="M60.6435 220.525C66.7332 220.525 71.6698 215.589 71.6698 209.499C71.6698 203.409 66.7332 198.473 60.6435 198.473C54.5538 198.473 49.6172 203.409 49.6172 209.499C49.6172 215.589 54.5538 220.525 60.6435 220.525Z" fill="#78DC65"/>
<path d="M110.265 220.525C116.354 220.525 121.291 215.589 121.291 209.499C121.291 203.409 116.354 198.473 110.265 198.473C104.175 198.473 99.2383 203.409 99.2383 209.499C99.2383 215.589 104.175 220.525 110.265 220.525Z" fill="#78DC65"/>
<path d="M159.882 220.525C165.971 220.525 170.908 215.589 170.908 209.499C170.908 203.409 165.971 198.473 159.882 198.473C153.792 198.473 148.855 203.409 148.855 209.499C148.855 215.589 153.792 220.525 159.882 220.525Z" fill="#78DC65"/>
<path d="M209.499 220.525C215.589 220.525 220.525 215.589 220.525 209.499C220.525 203.409 215.589 198.473 209.499 198.473C203.409 198.473 198.473 203.409 198.473 209.499C198.473 215.589 203.409 220.525 209.499 220.525Z" fill="#78DC65"/>
<path d="M259.118 220.525C265.208 220.525 270.144 215.589 270.144 209.499C270.144 203.409 265.208 198.473 259.118 198.473C253.028 198.473 248.092 203.409 248.092 209.499C248.092 215.589 253.028 220.525 259.118 220.525Z" fill="#78DC65"/>
<path d="M308.737 220.525C314.827 220.525 319.764 215.589 319.764 209.499C319.764 203.409 314.827 198.473 308.737 198.473C302.648 198.473 297.711 203.409 297.711 209.499C297.711 215.589 302.648 220.525 308.737 220.525Z" fill="#78DC65"/>
<path d="M358.354 220.525C364.444 220.525 369.381 215.589 369.381 209.499C369.381 203.409 364.444 198.473 358.354 198.473C352.265 198.473 347.328 203.409 347.328 209.499C347.328 215.589 352.265 220.525 358.354 220.525Z" fill="#78DC65"/>
<path d="M407.974 220.525C414.063 220.525 419 215.589 419 209.499C419 203.409 414.063 198.473 407.974 198.473C401.884 198.473 396.947 203.409 396.947 209.499C396.947 215.589 401.884 220.525 407.974 220.525Z" fill="#78DC65"/>
<path d="M11.0263 270.146C17.116 270.146 22.0526 265.21 22.0526 259.12C22.0526 253.03 17.116 248.094 11.0263 248.094C4.93665 248.094 0 253.03 0 259.12C0 265.21 4.93665 270.146 11.0263 270.146Z" fill="#78DC65"/>
<path d="M60.6435 270.146C66.7332 270.146 71.6698 265.21 71.6698 259.12C71.6698 253.03 66.7332 248.094 60.6435 248.094C54.5538 248.094 49.6172 253.03 49.6172 259.12C49.6172 265.21 54.5538 270.146 60.6435 270.146Z" fill="#78DC65"/>
<path d="M110.265 270.146C116.354 270.146 121.291 265.21 121.291 259.12C121.291 253.03 116.354 248.094 110.265 248.094C104.175 248.094 99.2383 253.03 99.2383 259.12C99.2383 265.21 104.175 270.146 110.265 270.146Z" fill="#78DC65"/>
<path d="M159.882 270.146C165.971 270.146 170.908 265.21 170.908 259.12C170.908 253.03 165.971 248.094 159.882 248.094C153.792 248.094 148.855 253.03 148.855 259.12C148.855 265.21 153.792 270.146 159.882 270.146Z" fill="#78DC65"/>
<path d="M209.499 270.146C215.589 270.146 220.525 265.21 220.525 259.12C220.525 253.03 215.589 248.094 209.499 248.094C203.409 248.094 198.473 253.03 198.473 259.12C198.473 265.21 203.409 270.146 209.499 270.146Z" fill="#78DC65"/>
<path d="M259.118 270.146C265.208 270.146 270.144 265.21 270.144 259.12C270.144 253.03 265.208 248.094 259.118 248.094C253.028 248.094 248.092 253.03 248.092 259.12C248.092 265.21 253.028 270.146 259.118 270.146Z" fill="#78DC65"/>
<path d="M308.737 270.146C314.827 270.146 319.764 265.21 319.764 259.12C319.764 253.03 314.827 248.094 308.737 248.094C302.648 248.094 297.711 253.03 297.711 259.12C297.711 265.21 302.648 270.146 308.737 270.146Z" fill="#78DC65"/>
<path d="M358.354 270.146C364.444 270.146 369.381 265.21 369.381 259.12C369.381 253.03 364.444 248.094 358.354 248.094C352.265 248.094 347.328 253.03 347.328 259.12C347.328 265.21 352.265 270.146 358.354 270.146Z" fill="#78DC65"/>
<path d="M407.974 270.146C414.063 270.146 419 265.21 419 259.12C419 253.03 414.063 248.094 407.974 248.094C401.884 248.094 396.947 253.03 396.947 259.12C396.947 265.21 401.884 270.146 407.974 270.146Z" fill="#78DC65"/>
<path d="M11.0263 319.764C17.116 319.764 22.0526 314.827 22.0526 308.737C22.0526 302.648 17.116 297.711 11.0263 297.711C4.93665 297.711 0 302.648 0 308.737C0 314.827 4.93665 319.764 11.0263 319.764Z" fill="#78DC65"/>
<path d="M60.6435 319.764C66.7332 319.764 71.6698 314.827 71.6698 308.737C71.6698 302.648 66.7332 297.711 60.6435 297.711C54.5538 297.711 49.6172 302.648 49.6172 308.737C49.6172 314.827 54.5538 319.764 60.6435 319.764Z" fill="#78DC65"/>
<path d="M110.265 319.764C116.354 319.764 121.291 314.827 121.291 308.737C121.291 302.648 116.354 297.711 110.265 297.711C104.175 297.711 99.2383 302.648 99.2383 308.737C99.2383 314.827 104.175 319.764 110.265 319.764Z" fill="#78DC65"/>
<path d="M159.882 319.764C165.971 319.764 170.908 314.827 170.908 308.737C170.908 302.648 165.971 297.711 159.882 297.711C153.792 297.711 148.855 302.648 148.855 308.737C148.855 314.827 153.792 319.764 159.882 319.764Z" fill="#78DC65"/>
<path d="M209.499 319.764C215.589 319.764 220.525 314.827 220.525 308.737C220.525 302.648 215.589 297.711 209.499 297.711C203.409 297.711 198.473 302.648 198.473 308.737C198.473 314.827 203.409 319.764 209.499 319.764Z" fill="#78DC65"/>
<path d="M259.118 319.764C265.208 319.764 270.144 314.827 270.144 308.737C270.144 302.648 265.208 297.711 259.118 297.711C253.028 297.711 248.092 302.648 248.092 308.737C248.092 314.827 253.028 319.764 259.118 319.764Z" fill="#78DC65"/>
<path d="M308.737 319.764C314.827 319.764 319.764 314.827 319.764 308.737C319.764 302.648 314.827 297.711 308.737 297.711C302.648 297.711 297.711 302.648 297.711 308.737C297.711 314.827 302.648 319.764 308.737 319.764Z" fill="#78DC65"/>
<path d="M358.354 319.764C364.444 319.764 369.381 314.827 369.381 308.737C369.381 302.648 364.444 297.711 358.354 297.711C352.265 297.711 347.328 302.648 347.328 308.737C347.328 314.827 352.265 319.764 358.354 319.764Z" fill="#78DC65"/>
<path d="M407.974 319.764C414.063 319.764 419 314.827 419 308.737C419 302.648 414.063 297.711 407.974 297.711C401.884 297.711 396.947 302.648 396.947 308.737C396.947 314.827 401.884 319.764 407.974 319.764Z" fill="#78DC65"/>
<path d="M11.0263 369.381C17.116 369.381 22.0526 364.444 22.0526 358.354C22.0526 352.265 17.116 347.328 11.0263 347.328C4.93665 347.328 0 352.265 0 358.354C0 364.444 4.93665 369.381 11.0263 369.381Z" fill="#78DC65"/>
<path d="M60.6435 369.381C66.7332 369.381 71.6698 364.444 71.6698 358.354C71.6698 352.265 66.7332 347.328 60.6435 347.328C54.5538 347.328 49.6172 352.265 49.6172 358.354C49.6172 364.444 54.5538 369.381 60.6435 369.381Z" fill="#78DC65"/>
<path d="M110.265 369.381C116.354 369.381 121.291 364.444 121.291 358.354C121.291 352.265 116.354 347.328 110.265 347.328C104.175 347.328 99.2383 352.265 99.2383 358.354C99.2383 364.444 104.175 369.381 110.265 369.381Z" fill="#78DC65"/>
<path d="M159.882 369.381C165.971 369.381 170.908 364.444 170.908 358.354C170.908 352.265 165.971 347.328 159.882 347.328C153.792 347.328 148.855 352.265 148.855 358.354C148.855 364.444 153.792 369.381 159.882 369.381Z" fill="#78DC65"/>
<path d="M209.499 369.381C215.589 369.381 220.525 364.444 220.525 358.354C220.525 352.265 215.589 347.328 209.499 347.328C203.409 347.328 198.473 352.265 198.473 358.354C198.473 364.444 203.409 369.381 209.499 369.381Z" fill="#78DC65"/>
<path d="M259.118 369.381C265.208 369.381 270.144 364.444 270.144 358.354C270.144 352.265 265.208 347.328 259.118 347.328C253.028 347.328 248.092 352.265 248.092 358.354C248.092 364.444 253.028 369.381 259.118 369.381Z" fill="#78DC65"/>
<path d="M308.737 369.381C314.827 369.381 319.764 364.444 319.764 358.354C319.764 352.265 314.827 347.328 308.737 347.328C302.648 347.328 297.711 352.265 297.711 358.354C297.711 364.444 302.648 369.381 308.737 369.381Z" fill="#78DC65"/>
<path d="M358.354 369.381C364.444 369.381 369.381 364.444 369.381 358.354C369.381 352.265 364.444 347.328 358.354 347.328C352.265 347.328 347.328 352.265 347.328 358.354C347.328 364.444 352.265 369.381 358.354 369.381Z" fill="#78DC65"/>
<path d="M407.974 369.381C414.063 369.381 419 364.444 419 358.354C419 352.265 414.063 347.328 407.974 347.328C401.884 347.328 396.947 352.265 396.947 358.354C396.947 364.444 401.884 369.381 407.974 369.381Z" fill="#78DC65"/>
<path d="M11.0263 419.002C17.116 419.002 22.0526 414.065 22.0526 407.976C22.0526 401.886 17.116 396.949 11.0263 396.949C4.93665 396.949 0 401.886 0 407.976C0 414.065 4.93665 419.002 11.0263 419.002Z" fill="#78DC65"/>
<path d="M60.6435 419.002C66.7332 419.002 71.6698 414.065 71.6698 407.976C71.6698 401.886 66.7332 396.949 60.6435 396.949C54.5538 396.949 49.6172 401.886 49.6172 407.976C49.6172 414.065 54.5538 419.002 60.6435 419.002Z" fill="#78DC65"/>
<path d="M110.265 419.002C116.354 419.002 121.291 414.065 121.291 407.976C121.291 401.886 116.354 396.949 110.265 396.949C104.175 396.949 99.2383 401.886 99.2383 407.976C99.2383 414.065 104.175 419.002 110.265 419.002Z" fill="#78DC65"/>
<path d="M159.882 419.002C165.971 419.002 170.908 414.065 170.908 407.976C170.908 401.886 165.971 396.949 159.882 396.949C153.792 396.949 148.855 401.886 148.855 407.976C148.855 414.065 153.792 419.002 159.882 419.002Z" fill="#78DC65"/>
<path d="M209.499 419.002C215.589 419.002 220.525 414.065 220.525 407.976C220.525 401.886 215.589 396.949 209.499 396.949C203.409 396.949 198.473 401.886 198.473 407.976C198.473 414.065 203.409 419.002 209.499 419.002Z" fill="#78DC65"/>
<path d="M259.118 419.002C265.208 419.002 270.144 414.065 270.144 407.976C270.144 401.886 265.208 396.949 259.118 396.949C253.028 396.949 248.092 401.886 248.092 407.976C248.092 414.065 253.028 419.002 259.118 419.002Z" fill="#78DC65"/>
<path d="M308.737 419.002C314.827 419.002 319.764 414.065 319.764 407.976C319.764 401.886 314.827 396.949 308.737 396.949C302.648 396.949 297.711 401.886 297.711 407.976C297.711 414.065 302.648 419.002 308.737 419.002Z" fill="#78DC65"/>
<path d="M358.354 419.002C364.444 419.002 369.381 414.065 369.381 407.976C369.381 401.886 364.444 396.949 358.354 396.949C352.265 396.949 347.328 401.886 347.328 407.976C347.328 414.065 352.265 419.002 358.354 419.002Z" fill="#78DC65"/>
<path d="M407.974 419.002C414.063 419.002 419 414.065 419 407.976C419 401.886 414.063 396.949 407.974 396.949C401.884 396.949 396.947 401.886 396.947 407.976C396.947 414.065 401.884 419.002 407.974 419.002Z" fill="#78DC65"/>
</g>
<defs>
<clipPath id="clip0_0_61">
<rect width="419" height="419" fill="white"/>
</clipPath>
</defs>
</svg>
