<svg width="228" height="228" viewBox="0 0 228 228" fill="none" xmlns="http://www.w3.org/2000/svg">
<circle cx="6" cy="6" r="6" fill="#D84B8E"/>
<circle cx="33" cy="6" r="6" fill="#D84B8E"/>
<circle cx="60" cy="6" r="6" fill="#D84B8E"/>
<circle cx="87" cy="6" r="6" fill="#D84B8E"/>
<circle cx="114" cy="6" r="6" fill="#D84B8E"/>
<circle cx="141" cy="6" r="6" fill="#D84B8E"/>
<circle cx="168" cy="6" r="6" fill="#D84B8E"/>
<circle cx="195" cy="6" r="6" fill="#D84B8E"/>
<circle cx="222" cy="6" r="6" fill="#D84B8E"/>
<circle cx="6" cy="33" r="6" fill="#D84B8E"/>
<circle cx="33" cy="33" r="6" fill="#D84B8E"/>
<circle cx="60" cy="33" r="6" fill="#D84B8E"/>
<circle cx="87" cy="33" r="6" fill="#D84B8E"/>
<circle cx="114" cy="33" r="6" fill="#D84B8E"/>
<circle cx="141" cy="33" r="6" fill="#D84B8E"/>
<circle cx="168" cy="33" r="6" fill="#D84B8E"/>
<circle cx="195" cy="33" r="6" fill="#D84B8E"/>
<circle cx="222" cy="33" r="6" fill="#D84B8E"/>
<circle cx="6" cy="60" r="6" fill="#D84B8E"/>
<circle cx="33" cy="60" r="6" fill="#D84B8E"/>
<circle cx="60" cy="60" r="6" fill="#D84B8E"/>
<circle cx="87" cy="60" r="6" fill="#D84B8E"/>
<circle cx="114" cy="60" r="6" fill="#D84B8E"/>
<circle cx="141" cy="60" r="6" fill="#D84B8E"/>
<circle cx="168" cy="60" r="6" fill="#D84B8E"/>
<circle cx="195" cy="60" r="6" fill="#D84B8E"/>
<circle cx="222" cy="60" r="6" fill="#D84B8E"/>
<circle cx="6" cy="87" r="6" fill="#D84B8E"/>
<circle cx="33" cy="87" r="6" fill="#D84B8E"/>
<circle cx="60" cy="87" r="6" fill="#D84B8E"/>
<circle cx="87" cy="87" r="6" fill="#D84B8E"/>
<circle cx="114" cy="87" r="6" fill="#D84B8E"/>
<circle cx="141" cy="87" r="6" fill="#D84B8E"/>
<circle cx="168" cy="87" r="6" fill="#D84B8E"/>
<circle cx="195" cy="87" r="6" fill="#D84B8E"/>
<circle cx="222" cy="87" r="6" fill="#D84B8E"/>
<circle cx="6" cy="114" r="6" fill="#D84B8E"/>
<circle cx="33" cy="114" r="6" fill="#D84B8E"/>
<circle cx="60" cy="114" r="6" fill="#D84B8E"/>
<circle cx="87" cy="114" r="6" fill="#D84B8E"/>
<circle cx="114" cy="114" r="6" fill="#D84B8E"/>
<circle cx="141" cy="114" r="6" fill="#D84B8E"/>
<circle cx="168" cy="114" r="6" fill="#D84B8E"/>
<circle cx="195" cy="114" r="6" fill="#D84B8E"/>
<circle cx="222" cy="114" r="6" fill="#D84B8E"/>
<circle cx="6" cy="141" r="6" fill="#D84B8E"/>
<circle cx="33" cy="141" r="6" fill="#D84B8E"/>
<circle cx="60" cy="141" r="6" fill="#D84B8E"/>
<circle cx="87" cy="141" r="6" fill="#D84B8E"/>
<circle cx="114" cy="141" r="6" fill="#D84B8E"/>
<circle cx="141" cy="141" r="6" fill="#D84B8E"/>
<circle cx="168" cy="141" r="6" fill="#D84B8E"/>
<circle cx="195" cy="141" r="6" fill="#D84B8E"/>
<circle cx="222" cy="141" r="6" fill="#D84B8E"/>
<circle cx="6" cy="168" r="6" fill="#D84B8E"/>
<circle cx="33" cy="168" r="6" fill="#D84B8E"/>
<circle cx="60" cy="168" r="6" fill="#D84B8E"/>
<circle cx="87" cy="168" r="6" fill="#D84B8E"/>
<circle cx="114" cy="168" r="6" fill="#D84B8E"/>
<circle cx="141" cy="168" r="6" fill="#D84B8E"/>
<circle cx="168" cy="168" r="6" fill="#D84B8E"/>
<circle cx="195" cy="168" r="6" fill="#D84B8E"/>
<circle cx="222" cy="168" r="6" fill="#D84B8E"/>
<circle cx="6" cy="195" r="6" fill="#D84B8E"/>
<circle cx="33" cy="195" r="6" fill="#D84B8E"/>
<circle cx="60" cy="195" r="6" fill="#D84B8E"/>
<circle cx="87" cy="195" r="6" fill="#D84B8E"/>
<circle cx="114" cy="195" r="6" fill="#D84B8E"/>
<circle cx="141" cy="195" r="6" fill="#D84B8E"/>
<circle cx="168" cy="195" r="6" fill="#D84B8E"/>
<circle cx="195" cy="195" r="6" fill="#D84B8E"/>
<circle cx="222" cy="195" r="6" fill="#D84B8E"/>
<circle cx="6" cy="222" r="6" fill="#D84B8E"/>
<circle cx="33" cy="222" r="6" fill="#D84B8E"/>
<circle cx="60" cy="222" r="6" fill="#D84B8E"/>
<circle cx="87" cy="222" r="6" fill="#D84B8E"/>
<circle cx="114" cy="222" r="6" fill="#D84B8E"/>
<circle cx="141" cy="222" r="6" fill="#D84B8E"/>
<circle cx="168" cy="222" r="6" fill="#D84B8E"/>
<circle cx="195" cy="222" r="6" fill="#D84B8E"/>
<circle cx="222" cy="222" r="6" fill="#D84B8E"/>
</svg>
