<svg width="391" height="427" viewBox="0 0 391 427" fill="none" xmlns="http://www.w3.org/2000/svg">
<path d="M72.9702 149.545L114.452 107.926L391 385.382L349.518 427L72.9702 149.545Z" fill="white"/>
<rect width="58.7609" height="391.74" transform="matrix(0.705947 0.708264 -0.705947 0.708264 349.509 107.923)" fill="white"/>
<ellipse cx="155.434" cy="155.785" rx="155.434" ry="155.785" fill="white"/>
<path d="M310.746 147.238C310.746 147.238 311.742 176.187 306.264 193.157C302.28 212.123 288.835 245.064 261.943 269.521C247.003 285.991 215.63 301.464 198.2 305.457C172.803 313.443 146.647 311.451 146.647 311.451L310.746 147.238Z" fill="#353535"/>
<path d="M72.9708 149.545L114.453 107.926C169.937 163.637 201.046 194.871 256.531 250.582C256.531 250.582 270.409 265.028 244.016 283.995C217.622 302.961 211.605 291.922 211.605 291.922L72.9708 149.545Z" fill="#353535"/>
</svg>
