<svg width="611" height="600" viewBox="0 0 611 600" fill="none" xmlns="http://www.w3.org/2000/svg">
<rect x="193.137" y="189" width="24.7218" height="411" fill="#F2F2F2"/>
<rect x="342.066" y="240.445" width="24.7218" height="411" transform="rotate(45 342.066 240.445)" fill="#F2F2F2"/>
<rect x="411" y="382.137" width="24.7218" height="411" transform="rotate(90 411 382.137)" fill="#F2F2F2"/>
<rect x="359.545" y="531.062" width="24.7218" height="411" transform="rotate(135 359.545 531.062)" fill="#F2F2F2"/>
<g clip-path="url(#clip0_58_1495)">
<path d="M220.813 21.0912C226.637 21.0912 231.358 16.3698 231.358 10.5456C231.358 4.72143 226.637 0 220.813 0C214.989 0 210.267 4.72143 210.267 10.5456C210.267 16.3698 214.989 21.0912 220.813 21.0912Z" fill="#F2F2F2"/>
<path d="M268.268 21.0912C274.093 21.0912 278.814 16.3698 278.814 10.5456C278.814 4.72143 274.093 0 268.268 0C262.444 0 257.723 4.72143 257.723 10.5456C257.723 16.3698 262.444 21.0912 268.268 21.0912Z" fill="#F2F2F2"/>
<path d="M315.724 21.0912C321.548 21.0912 326.27 16.3698 326.27 10.5456C326.27 4.72143 321.548 0 315.724 0C309.9 0 305.179 4.72143 305.179 10.5456C305.179 16.3698 309.9 21.0912 315.724 21.0912Z" fill="#F2F2F2"/>
<path d="M363.18 21.0912C369.004 21.0912 373.725 16.3698 373.725 10.5456C373.725 4.72143 369.004 0 363.18 0C357.356 0 352.634 4.72143 352.634 10.5456C352.634 16.3698 357.356 21.0912 363.18 21.0912Z" fill="#F2F2F2"/>
<path d="M410.633 21.0912C416.457 21.0912 421.179 16.3698 421.179 10.5456C421.179 4.72143 416.457 0 410.633 0C404.809 0 400.087 4.72143 400.087 10.5456C400.087 16.3698 404.809 21.0912 410.633 21.0912Z" fill="#F2F2F2"/>
<path d="M458.089 21.0912C463.913 21.0912 468.634 16.3698 468.634 10.5456C468.634 4.72143 463.913 0 458.089 0C452.264 0 447.543 4.72143 447.543 10.5456C447.543 16.3698 452.264 21.0912 458.089 21.0912Z" fill="#F2F2F2"/>
<path d="M505.542 21.0912C511.366 21.0912 516.088 16.3698 516.088 10.5456C516.088 4.72143 511.366 0 505.542 0C499.718 0 494.996 4.72143 494.996 10.5456C494.996 16.3698 499.718 21.0912 505.542 21.0912Z" fill="#F2F2F2"/>
<path d="M553 21.0912C558.824 21.0912 563.546 16.3698 563.546 10.5456C563.546 4.72143 558.824 0 553 0C547.176 0 542.455 4.72143 542.455 10.5456C542.455 16.3698 547.176 21.0912 553 21.0912Z" fill="#F2F2F2"/>
<path d="M600.453 21.0912C606.277 21.0912 610.999 16.3698 610.999 10.5456C610.999 4.72143 606.277 0 600.453 0C594.629 0 589.908 4.72143 589.908 10.5456C589.908 16.3698 594.629 21.0912 600.453 21.0912Z" fill="#F2F2F2"/>
<path d="M220.813 68.5469C226.637 68.5469 231.358 63.8255 231.358 58.0013C231.358 52.1772 226.637 47.4557 220.813 47.4557C214.989 47.4557 210.267 52.1772 210.267 58.0013C210.267 63.8255 214.989 68.5469 220.813 68.5469Z" fill="#F2F2F2"/>
<path d="M268.268 68.5469C274.093 68.5469 278.814 63.8255 278.814 58.0013C278.814 52.1772 274.093 47.4557 268.268 47.4557C262.444 47.4557 257.723 52.1772 257.723 58.0013C257.723 63.8255 262.444 68.5469 268.268 68.5469Z" fill="#F2F2F2"/>
<path d="M315.724 68.5469C321.548 68.5469 326.27 63.8255 326.27 58.0013C326.27 52.1772 321.548 47.4557 315.724 47.4557C309.9 47.4557 305.179 52.1772 305.179 58.0013C305.179 63.8255 309.9 68.5469 315.724 68.5469Z" fill="#F2F2F2"/>
<path d="M363.18 68.5469C369.004 68.5469 373.725 63.8255 373.725 58.0013C373.725 52.1772 369.004 47.4557 363.18 47.4557C357.356 47.4557 352.634 52.1772 352.634 58.0013C352.634 63.8255 357.356 68.5469 363.18 68.5469Z" fill="#F2F2F2"/>
<path d="M410.633 68.5469C416.457 68.5469 421.179 63.8255 421.179 58.0013C421.179 52.1772 416.457 47.4557 410.633 47.4557C404.809 47.4557 400.087 52.1772 400.087 58.0013C400.087 63.8255 404.809 68.5469 410.633 68.5469Z" fill="#F2F2F2"/>
<path d="M458.089 68.5469C463.913 68.5469 468.634 63.8255 468.634 58.0013C468.634 52.1772 463.913 47.4557 458.089 47.4557C452.265 47.4557 447.543 52.1772 447.543 58.0013C447.543 63.8255 452.265 68.5469 458.089 68.5469Z" fill="#F2F2F2"/>
<path d="M505.542 68.5469C511.366 68.5469 516.088 63.8255 516.088 58.0013C516.088 52.1772 511.366 47.4557 505.542 47.4557C499.718 47.4557 494.996 52.1772 494.996 58.0013C494.996 63.8255 499.718 68.5469 505.542 68.5469Z" fill="#F2F2F2"/>
<path d="M552.998 68.5469C558.822 68.5469 563.543 63.8255 563.543 58.0013C563.543 52.1772 558.822 47.4557 552.998 47.4557C547.173 47.4557 542.452 52.1772 542.452 58.0013C542.452 63.8255 547.173 68.5469 552.998 68.5469Z" fill="#F2F2F2"/>
<path d="M600.453 68.5469C606.277 68.5469 610.999 63.8255 610.999 58.0013C610.999 52.1772 606.277 47.4557 600.453 47.4557C594.629 47.4557 589.908 52.1772 589.908 58.0013C589.908 63.8255 594.629 68.5469 600.453 68.5469Z" fill="#F2F2F2"/>
<path d="M220.813 116.003C226.637 116.003 231.358 111.281 231.358 105.457C231.358 99.6329 226.637 94.9115 220.813 94.9115C214.989 94.9115 210.267 99.6329 210.267 105.457C210.267 111.281 214.989 116.003 220.813 116.003Z" fill="#F2F2F2"/>
<path d="M268.268 116.003C274.093 116.003 278.814 111.281 278.814 105.457C278.814 99.6329 274.093 94.9115 268.268 94.9115C262.444 94.9115 257.723 99.6329 257.723 105.457C257.723 111.281 262.444 116.003 268.268 116.003Z" fill="#F2F2F2"/>
<path d="M315.724 116.003C321.548 116.003 326.27 111.281 326.27 105.457C326.27 99.6329 321.548 94.9115 315.724 94.9115C309.9 94.9115 305.179 99.6329 305.179 105.457C305.179 111.281 309.9 116.003 315.724 116.003Z" fill="#F2F2F2"/>
<path d="M363.18 116.003C369.004 116.003 373.725 111.281 373.725 105.457C373.725 99.6329 369.004 94.9115 363.18 94.9115C357.356 94.9115 352.634 99.6329 352.634 105.457C352.634 111.281 357.356 116.003 363.18 116.003Z" fill="#F2F2F2"/>
<path d="M410.633 116.003C416.457 116.003 421.179 111.281 421.179 105.457C421.179 99.6329 416.457 94.9115 410.633 94.9115C404.809 94.9115 400.087 99.6329 400.087 105.457C400.087 111.281 404.809 116.003 410.633 116.003Z" fill="#F2F2F2"/>
<path d="M458.089 116.003C463.913 116.003 468.634 111.281 468.634 105.457C468.634 99.6329 463.913 94.9115 458.089 94.9115C452.265 94.9115 447.543 99.6329 447.543 105.457C447.543 111.281 452.265 116.003 458.089 116.003Z" fill="#F2F2F2"/>
<path d="M505.542 116.003C511.366 116.003 516.088 111.281 516.088 105.457C516.088 99.6329 511.366 94.9115 505.542 94.9115C499.718 94.9115 494.996 99.6329 494.996 105.457C494.996 111.281 499.718 116.003 505.542 116.003Z" fill="#F2F2F2"/>
<path d="M552.998 116.003C558.822 116.003 563.543 111.281 563.543 105.457C563.543 99.6329 558.822 94.9115 552.998 94.9115C547.173 94.9115 542.452 99.6329 542.452 105.457C542.452 111.281 547.173 116.003 552.998 116.003Z" fill="#F2F2F2"/>
<path d="M600.453 116.003C606.277 116.003 610.999 111.281 610.999 105.457C610.999 99.6329 606.277 94.9115 600.453 94.9115C594.629 94.9115 589.908 99.6329 589.908 105.457C589.908 111.281 594.629 116.003 600.453 116.003Z" fill="#F2F2F2"/>
<path d="M220.813 163.458C226.637 163.458 231.358 158.737 231.358 152.913C231.358 147.089 226.637 142.367 220.813 142.367C214.989 142.367 210.267 147.089 210.267 152.913C210.267 158.737 214.989 163.458 220.813 163.458Z" fill="#F2F2F2"/>
<path d="M268.268 163.458C274.093 163.458 278.814 158.737 278.814 152.913C278.814 147.089 274.093 142.367 268.268 142.367C262.444 142.367 257.723 147.089 257.723 152.913C257.723 158.737 262.444 163.458 268.268 163.458Z" fill="#F2F2F2"/>
<path d="M315.724 163.458C321.548 163.458 326.27 158.737 326.27 152.913C326.27 147.089 321.548 142.367 315.724 142.367C309.9 142.367 305.179 147.089 305.179 152.913C305.179 158.737 309.9 163.458 315.724 163.458Z" fill="#F2F2F2"/>
<path d="M363.18 163.458C369.004 163.458 373.725 158.737 373.725 152.913C373.725 147.089 369.004 142.367 363.18 142.367C357.356 142.367 352.634 147.089 352.634 152.913C352.634 158.737 357.356 163.458 363.18 163.458Z" fill="#F2F2F2"/>
<path d="M410.633 163.458C416.457 163.458 421.179 158.737 421.179 152.913C421.179 147.089 416.457 142.367 410.633 142.367C404.809 142.367 400.087 147.089 400.087 152.913C400.087 158.737 404.809 163.458 410.633 163.458Z" fill="#F2F2F2"/>
<path d="M458.089 163.458C463.913 163.458 468.634 158.737 468.634 152.913C468.634 147.089 463.913 142.367 458.089 142.367C452.265 142.367 447.543 147.089 447.543 152.913C447.543 158.737 452.265 163.458 458.089 163.458Z" fill="#F2F2F2"/>
<path d="M505.542 163.458C511.366 163.458 516.088 158.737 516.088 152.913C516.088 147.089 511.366 142.367 505.542 142.367C499.718 142.367 494.996 147.089 494.996 152.913C494.996 158.737 499.718 163.458 505.542 163.458Z" fill="#F2F2F2"/>
<path d="M552.998 163.458C558.822 163.458 563.543 158.737 563.543 152.913C563.543 147.089 558.822 142.367 552.998 142.367C547.173 142.367 542.452 147.089 542.452 152.913C542.452 158.737 547.173 163.458 552.998 163.458Z" fill="#F2F2F2"/>
<path d="M600.453 163.458C606.277 163.458 610.999 158.737 610.999 152.913C610.999 147.089 606.277 142.367 600.453 142.367C594.629 142.367 589.908 147.089 589.908 152.913C589.908 158.737 594.629 163.458 600.453 163.458Z" fill="#F2F2F2"/>
<path d="M220.813 210.914C226.637 210.914 231.358 206.193 231.358 200.369C231.358 194.544 226.637 189.823 220.813 189.823C214.989 189.823 210.267 194.544 210.267 200.369C210.267 206.193 214.989 210.914 220.813 210.914Z" fill="#F2F2F2"/>
<path d="M268.268 210.914C274.093 210.914 278.814 206.193 278.814 200.369C278.814 194.544 274.093 189.823 268.268 189.823C262.444 189.823 257.723 194.544 257.723 200.369C257.723 206.193 262.444 210.914 268.268 210.914Z" fill="#F2F2F2"/>
<path d="M315.724 210.914C321.548 210.914 326.27 206.193 326.27 200.369C326.27 194.544 321.548 189.823 315.724 189.823C309.9 189.823 305.179 194.544 305.179 200.369C305.179 206.193 309.9 210.914 315.724 210.914Z" fill="#F2F2F2"/>
<path d="M363.18 210.914C369.004 210.914 373.725 206.193 373.725 200.369C373.725 194.544 369.004 189.823 363.18 189.823C357.356 189.823 352.634 194.544 352.634 200.369C352.634 206.193 357.356 210.914 363.18 210.914Z" fill="#F2F2F2"/>
<path d="M410.633 210.914C416.457 210.914 421.179 206.193 421.179 200.369C421.179 194.544 416.457 189.823 410.633 189.823C404.809 189.823 400.087 194.544 400.087 200.369C400.087 206.193 404.809 210.914 410.633 210.914Z" fill="#F2F2F2"/>
<path d="M458.089 210.914C463.913 210.914 468.634 206.193 468.634 200.369C468.634 194.544 463.913 189.823 458.089 189.823C452.265 189.823 447.543 194.544 447.543 200.369C447.543 206.193 452.265 210.914 458.089 210.914Z" fill="#F2F2F2"/>
<path d="M505.542 210.914C511.366 210.914 516.088 206.193 516.088 200.369C516.088 194.544 511.366 189.823 505.542 189.823C499.718 189.823 494.996 194.544 494.996 200.369C494.996 206.193 499.718 210.914 505.542 210.914Z" fill="#F2F2F2"/>
<path d="M552.998 210.914C558.822 210.914 563.543 206.193 563.543 200.369C563.543 194.544 558.822 189.823 552.998 189.823C547.173 189.823 542.452 194.544 542.452 200.369C542.452 206.193 547.173 210.914 552.998 210.914Z" fill="#F2F2F2"/>
<path d="M600.453 210.914C606.277 210.914 610.999 206.193 610.999 200.369C610.999 194.544 606.277 189.823 600.453 189.823C594.629 189.823 589.908 194.544 589.908 200.369C589.908 206.193 594.629 210.914 600.453 210.914Z" fill="#F2F2F2"/>
<path d="M220.813 258.365C226.637 258.365 231.358 253.643 231.358 247.819C231.358 241.995 226.637 237.273 220.813 237.273C214.989 237.273 210.267 241.995 210.267 247.819C210.267 253.643 214.989 258.365 220.813 258.365Z" fill="#F2F2F2"/>
<path d="M268.268 258.365C274.093 258.365 278.814 253.643 278.814 247.819C278.814 241.995 274.093 237.273 268.268 237.273C262.444 237.273 257.723 241.995 257.723 247.819C257.723 253.643 262.444 258.365 268.268 258.365Z" fill="#F2F2F2"/>
<path d="M315.724 258.365C321.548 258.365 326.27 253.643 326.27 247.819C326.27 241.995 321.548 237.273 315.724 237.273C309.9 237.273 305.179 241.995 305.179 247.819C305.179 253.643 309.9 258.365 315.724 258.365Z" fill="#F2F2F2"/>
<path d="M363.18 258.365C369.004 258.365 373.725 253.643 373.725 247.819C373.725 241.995 369.004 237.273 363.18 237.273C357.356 237.273 352.634 241.995 352.634 247.819C352.634 253.643 357.356 258.365 363.18 258.365Z" fill="#F2F2F2"/>
<path d="M410.633 258.365C416.457 258.365 421.179 253.643 421.179 247.819C421.179 241.995 416.457 237.273 410.633 237.273C404.809 237.273 400.087 241.995 400.087 247.819C400.087 253.643 404.809 258.365 410.633 258.365Z" fill="#F2F2F2"/>
<path d="M458.089 258.365C463.913 258.365 468.634 253.643 468.634 247.819C468.634 241.995 463.913 237.273 458.089 237.273C452.265 237.273 447.543 241.995 447.543 247.819C447.543 253.643 452.265 258.365 458.089 258.365Z" fill="#F2F2F2"/>
<path d="M505.542 258.365C511.366 258.365 516.088 253.643 516.088 247.819C516.088 241.995 511.366 237.273 505.542 237.273C499.718 237.273 494.996 241.995 494.996 247.819C494.996 253.643 499.718 258.365 505.542 258.365Z" fill="#F2F2F2"/>
<path d="M552.998 258.365C558.822 258.365 563.543 253.643 563.543 247.819C563.543 241.995 558.822 237.273 552.998 237.273C547.173 237.273 542.452 241.995 542.452 247.819C542.452 253.643 547.173 258.365 552.998 258.365Z" fill="#F2F2F2"/>
<path d="M600.453 258.365C606.277 258.365 610.999 253.643 610.999 247.819C610.999 241.995 606.277 237.273 600.453 237.273C594.629 237.273 589.908 241.995 589.908 247.819C589.908 253.643 594.629 258.365 600.453 258.365Z" fill="#F2F2F2"/>
<path d="M220.813 305.82C226.637 305.82 231.358 301.099 231.358 295.275C231.358 289.451 226.637 284.729 220.813 284.729C214.989 284.729 210.267 289.451 210.267 295.275C210.267 301.099 214.989 305.82 220.813 305.82Z" fill="#353535"/>
<path d="M268.268 305.82C274.093 305.82 278.814 301.099 278.814 295.275C278.814 289.451 274.093 284.729 268.268 284.729C262.444 284.729 257.723 289.451 257.723 295.275C257.723 301.099 262.444 305.82 268.268 305.82Z" fill="#F2F2F2"/>
<path d="M315.724 305.82C321.548 305.82 326.27 301.099 326.27 295.275C326.27 289.451 321.548 284.729 315.724 284.729C309.9 284.729 305.179 289.451 305.179 295.275C305.179 301.099 309.9 305.82 315.724 305.82Z" fill="#353535"/>
<path d="M363.18 305.82C369.004 305.82 373.725 301.099 373.725 295.275C373.725 289.451 369.004 284.729 363.18 284.729C357.356 284.729 352.634 289.451 352.634 295.275C352.634 301.099 357.356 305.82 363.18 305.82Z" fill="#F2F2F2"/>
<path d="M410.633 305.82C416.457 305.82 421.179 301.099 421.179 295.275C421.179 289.451 416.457 284.729 410.633 284.729C404.809 284.729 400.087 289.451 400.087 295.275C400.087 301.099 404.809 305.82 410.633 305.82Z" fill="#F2F2F2"/>
<path d="M458.089 305.82C463.913 305.82 468.634 301.099 468.634 295.275C468.634 289.451 463.913 284.729 458.089 284.729C452.265 284.729 447.543 289.451 447.543 295.275C447.543 301.099 452.265 305.82 458.089 305.82Z" fill="#F2F2F2"/>
<path d="M505.542 305.82C511.366 305.82 516.088 301.099 516.088 295.275C516.088 289.451 511.366 284.729 505.542 284.729C499.718 284.729 494.996 289.451 494.996 295.275C494.996 301.099 499.718 305.82 505.542 305.82Z" fill="#F2F2F2"/>
<path d="M552.998 305.82C558.822 305.82 563.543 301.099 563.543 295.275C563.543 289.451 558.822 284.729 552.998 284.729C547.173 284.729 542.452 289.451 542.452 295.275C542.452 301.099 547.173 305.82 552.998 305.82Z" fill="#F2F2F2"/>
<path d="M600.453 305.82C606.277 305.82 610.999 301.099 610.999 295.275C610.999 289.451 606.277 284.729 600.453 284.729C594.629 284.729 589.908 289.451 589.908 295.275C589.908 301.099 594.629 305.82 600.453 305.82Z" fill="#F2F2F2"/>
<path d="M220.813 353.276C226.637 353.276 231.358 348.555 231.358 342.731C231.358 336.906 226.637 332.185 220.813 332.185C214.989 332.185 210.267 336.906 210.267 342.731C210.267 348.555 214.989 353.276 220.813 353.276Z" fill="#353535"/>
<path d="M268.268 353.276C274.093 353.276 278.814 348.555 278.814 342.731C278.814 336.906 274.093 332.185 268.268 332.185C262.444 332.185 257.723 336.906 257.723 342.731C257.723 348.555 262.444 353.276 268.268 353.276Z" fill="#353535"/>
<path d="M315.724 353.276C321.548 353.276 326.27 348.555 326.27 342.731C326.27 336.906 321.548 332.185 315.724 332.185C309.9 332.185 305.179 336.906 305.179 342.731C305.179 348.555 309.9 353.276 315.724 353.276Z" fill="#F2F2F2"/>
<path d="M363.18 353.276C369.004 353.276 373.725 348.555 373.725 342.731C373.725 336.906 369.004 332.185 363.18 332.185C357.356 332.185 352.634 336.906 352.634 342.731C352.634 348.555 357.356 353.276 363.18 353.276Z" fill="#F2F2F2"/>
<path d="M410.633 353.276C416.457 353.276 421.179 348.555 421.179 342.731C421.179 336.906 416.457 332.185 410.633 332.185C404.809 332.185 400.087 336.906 400.087 342.731C400.087 348.555 404.809 353.276 410.633 353.276Z" fill="#F2F2F2"/>
<path d="M458.089 353.276C463.913 353.276 468.634 348.555 468.634 342.731C468.634 336.906 463.913 332.185 458.089 332.185C452.265 332.185 447.543 336.906 447.543 342.731C447.543 348.555 452.265 353.276 458.089 353.276Z" fill="#F2F2F2"/>
<path d="M505.542 353.276C511.366 353.276 516.088 348.555 516.088 342.731C516.088 336.906 511.366 332.185 505.542 332.185C499.718 332.185 494.996 336.906 494.996 342.731C494.996 348.555 499.718 353.276 505.542 353.276Z" fill="#F2F2F2"/>
<path d="M552.998 353.276C558.822 353.276 563.543 348.555 563.543 342.731C563.543 336.906 558.822 332.185 552.998 332.185C547.173 332.185 542.452 336.906 542.452 342.731C542.452 348.555 547.173 353.276 552.998 353.276Z" fill="#F2F2F2"/>
<path d="M600.453 353.276C606.277 353.276 610.999 348.555 610.999 342.731C610.999 336.906 606.277 332.185 600.453 332.185C594.629 332.185 589.908 336.906 589.908 342.731C589.908 348.555 594.629 353.276 600.453 353.276Z" fill="#F2F2F2"/>
<path d="M220.813 400.732C226.637 400.732 231.358 396.01 231.358 390.186C231.358 384.362 226.637 379.641 220.813 379.641C214.989 379.641 210.267 384.362 210.267 390.186C210.267 396.01 214.989 400.732 220.813 400.732Z" fill="#353535"/>
<path d="M268.268 400.732C274.093 400.732 278.814 396.01 278.814 390.186C278.814 384.362 274.093 379.641 268.268 379.641C262.444 379.641 257.723 384.362 257.723 390.186C257.723 396.01 262.444 400.732 268.268 400.732Z" fill="#353535"/>
<path d="M315.724 400.732C321.548 400.732 326.27 396.01 326.27 390.186C326.27 384.362 321.548 379.641 315.724 379.641C309.9 379.641 305.179 384.362 305.179 390.186C305.179 396.01 309.9 400.732 315.724 400.732Z" fill="#353535"/>
<path d="M363.18 400.732C369.004 400.732 373.725 396.01 373.725 390.186C373.725 384.362 369.004 379.641 363.18 379.641C357.356 379.641 352.634 384.362 352.634 390.186C352.634 396.01 357.356 400.732 363.18 400.732Z" fill="#353535"/>
<path d="M410.633 400.732C416.457 400.732 421.179 396.01 421.179 390.186C421.179 384.362 416.457 379.641 410.633 379.641C404.809 379.641 400.087 384.362 400.087 390.186C400.087 396.01 404.809 400.732 410.633 400.732Z" fill="#353535"/>
<path d="M458.089 400.732C463.913 400.732 468.634 396.01 468.634 390.186C468.634 384.362 463.913 379.641 458.089 379.641C452.265 379.641 447.543 384.362 447.543 390.186C447.543 396.01 452.265 400.732 458.089 400.732Z" fill="#F2F2F2"/>
<path d="M505.542 400.732C511.366 400.732 516.088 396.01 516.088 390.186C516.088 384.362 511.366 379.641 505.542 379.641C499.718 379.641 494.996 384.362 494.996 390.186C494.996 396.01 499.718 400.732 505.542 400.732Z" fill="#F2F2F2"/>
<path d="M552.998 400.732C558.822 400.732 563.543 396.01 563.543 390.186C563.543 384.362 558.822 379.641 552.998 379.641C547.173 379.641 542.452 384.362 542.452 390.186C542.452 396.01 547.173 400.732 552.998 400.732Z" fill="#F2F2F2"/>
<path d="M600.453 400.732C606.277 400.732 610.999 396.01 610.999 390.186C610.999 384.362 606.277 379.641 600.453 379.641C594.629 379.641 589.908 384.362 589.908 390.186C589.908 396.01 594.629 400.732 600.453 400.732Z" fill="#F2F2F2"/>
</g>
<defs>
<clipPath id="clip0_58_1495">
<rect width="400.733" height="400.733" fill="white" transform="translate(210.267)"/>
</clipPath>
</defs>
</svg>
