<svg width="401" height="401" viewBox="0 0 401 401" fill="none" xmlns="http://www.w3.org/2000/svg">
<g clip-path="url(#clip0_58_1501)">
<path d="M10.8127 21.0912C16.6369 21.0912 21.3583 16.3698 21.3583 10.5456C21.3583 4.72143 16.6369 0 10.8127 0C4.98851 0 0.26709 4.72143 0.26709 10.5456C0.26709 16.3698 4.98851 21.0912 10.8127 21.0912Z" fill="#F2F2F2"/>
<path d="M58.2683 21.0912C64.0924 21.0912 68.8139 16.3698 68.8139 10.5456C68.8139 4.72143 64.0924 0 58.2683 0C52.4441 0 47.7227 4.72143 47.7227 10.5456C47.7227 16.3698 52.4441 21.0912 58.2683 21.0912Z" fill="#F2F2F2"/>
<path d="M105.724 21.0912C111.548 21.0912 116.27 16.3698 116.27 10.5456C116.27 4.72143 111.548 0 105.724 0C99.9001 0 95.1787 4.72143 95.1787 10.5456C95.1787 16.3698 99.9001 21.0912 105.724 21.0912Z" fill="#F2F2F2"/>
<path d="M153.18 21.0912C159.004 21.0912 163.725 16.3698 163.725 10.5456C163.725 4.72143 159.004 0 153.18 0C147.356 0 142.634 4.72143 142.634 10.5456C142.634 16.3698 147.356 21.0912 153.18 21.0912Z" fill="#F2F2F2"/>
<path d="M200.633 21.0912C206.457 21.0912 211.179 16.3698 211.179 10.5456C211.179 4.72143 206.457 0 200.633 0C194.809 0 190.087 4.72143 190.087 10.5456C190.087 16.3698 194.809 21.0912 200.633 21.0912Z" fill="#F2F2F2"/>
<path d="M248.089 21.0912C253.913 21.0912 258.634 16.3698 258.634 10.5456C258.634 4.72143 253.913 0 248.089 0C242.264 0 237.543 4.72143 237.543 10.5456C237.543 16.3698 242.264 21.0912 248.089 21.0912Z" fill="#F2F2F2"/>
<path d="M295.542 21.0912C301.366 21.0912 306.087 16.3698 306.087 10.5456C306.087 4.72143 301.366 0 295.542 0C289.718 0 284.996 4.72143 284.996 10.5456C284.996 16.3698 289.718 21.0912 295.542 21.0912Z" fill="#F2F2F2"/>
<path d="M343 21.0912C348.824 21.0912 353.546 16.3698 353.546 10.5456C353.546 4.72143 348.824 0 343 0C337.176 0 332.455 4.72143 332.455 10.5456C332.455 16.3698 337.176 21.0912 343 21.0912Z" fill="#F2F2F2"/>
<path d="M390.453 21.0912C396.277 21.0912 400.999 16.3698 400.999 10.5456C400.999 4.72143 396.277 0 390.453 0C384.629 0 379.908 4.72143 379.908 10.5456C379.908 16.3698 384.629 21.0912 390.453 21.0912Z" fill="#F2F2F2"/>
<path d="M10.8127 68.5469C16.6369 68.5469 21.3583 63.8255 21.3583 58.0013C21.3583 52.1772 16.6369 47.4557 10.8127 47.4557C4.98851 47.4557 0.26709 52.1772 0.26709 58.0013C0.26709 63.8255 4.98851 68.5469 10.8127 68.5469Z" fill="#F2F2F2"/>
<path d="M58.2683 68.5469C64.0924 68.5469 68.8139 63.8255 68.8139 58.0013C68.8139 52.1772 64.0924 47.4557 58.2683 47.4557C52.4441 47.4557 47.7227 52.1772 47.7227 58.0013C47.7227 63.8255 52.4441 68.5469 58.2683 68.5469Z" fill="#F2F2F2"/>
<path d="M105.724 68.5469C111.548 68.5469 116.27 63.8255 116.27 58.0013C116.27 52.1772 111.548 47.4557 105.724 47.4557C99.9001 47.4557 95.1787 52.1772 95.1787 58.0013C95.1787 63.8255 99.9001 68.5469 105.724 68.5469Z" fill="#F2F2F2"/>
<path d="M153.18 68.5469C159.004 68.5469 163.725 63.8255 163.725 58.0013C163.725 52.1772 159.004 47.4557 153.18 47.4557C147.356 47.4557 142.634 52.1772 142.634 58.0013C142.634 63.8255 147.356 68.5469 153.18 68.5469Z" fill="#F2F2F2"/>
<path d="M200.633 68.5469C206.457 68.5469 211.179 63.8255 211.179 58.0013C211.179 52.1772 206.457 47.4557 200.633 47.4557C194.809 47.4557 190.087 52.1772 190.087 58.0013C190.087 63.8255 194.809 68.5469 200.633 68.5469Z" fill="#F2F2F2"/>
<path d="M248.089 68.5469C253.913 68.5469 258.634 63.8255 258.634 58.0013C258.634 52.1772 253.913 47.4557 248.089 47.4557C242.264 47.4557 237.543 52.1772 237.543 58.0013C237.543 63.8255 242.264 68.5469 248.089 68.5469Z" fill="#F2F2F2"/>
<path d="M295.542 68.5469C301.366 68.5469 306.087 63.8255 306.087 58.0013C306.087 52.1772 301.366 47.4557 295.542 47.4557C289.718 47.4557 284.996 52.1772 284.996 58.0013C284.996 63.8255 289.718 68.5469 295.542 68.5469Z" fill="#F2F2F2"/>
<path d="M342.998 68.5469C348.822 68.5469 353.543 63.8255 353.543 58.0013C353.543 52.1772 348.822 47.4557 342.998 47.4557C337.174 47.4557 332.452 52.1772 332.452 58.0013C332.452 63.8255 337.174 68.5469 342.998 68.5469Z" fill="#F2F2F2"/>
<path d="M390.453 68.5469C396.277 68.5469 400.999 63.8255 400.999 58.0013C400.999 52.1772 396.277 47.4557 390.453 47.4557C384.629 47.4557 379.908 52.1772 379.908 58.0013C379.908 63.8255 384.629 68.5469 390.453 68.5469Z" fill="#F2F2F2"/>
<path d="M10.8127 116.003C16.6369 116.003 21.3583 111.281 21.3583 105.457C21.3583 99.6329 16.6369 94.9115 10.8127 94.9115C4.98851 94.9115 0.26709 99.6329 0.26709 105.457C0.26709 111.281 4.98851 116.003 10.8127 116.003Z" fill="#F2F2F2"/>
<path d="M58.2683 116.003C64.0924 116.003 68.8139 111.281 68.8139 105.457C68.8139 99.6329 64.0924 94.9115 58.2683 94.9115C52.4441 94.9115 47.7227 99.6329 47.7227 105.457C47.7227 111.281 52.4441 116.003 58.2683 116.003Z" fill="#F2F2F2"/>
<path d="M105.724 116.003C111.548 116.003 116.27 111.281 116.27 105.457C116.27 99.6329 111.548 94.9115 105.724 94.9115C99.9001 94.9115 95.1787 99.6329 95.1787 105.457C95.1787 111.281 99.9001 116.003 105.724 116.003Z" fill="#F2F2F2"/>
<path d="M153.18 116.003C159.004 116.003 163.725 111.281 163.725 105.457C163.725 99.6329 159.004 94.9115 153.18 94.9115C147.356 94.9115 142.634 99.6329 142.634 105.457C142.634 111.281 147.356 116.003 153.18 116.003Z" fill="#F2F2F2"/>
<path d="M200.633 116.003C206.457 116.003 211.179 111.281 211.179 105.457C211.179 99.6329 206.457 94.9115 200.633 94.9115C194.809 94.9115 190.087 99.6329 190.087 105.457C190.087 111.281 194.809 116.003 200.633 116.003Z" fill="#F2F2F2"/>
<path d="M248.089 116.003C253.913 116.003 258.634 111.281 258.634 105.457C258.634 99.6329 253.913 94.9115 248.089 94.9115C242.264 94.9115 237.543 99.6329 237.543 105.457C237.543 111.281 242.264 116.003 248.089 116.003Z" fill="#F2F2F2"/>
<path d="M295.542 116.003C301.366 116.003 306.087 111.281 306.087 105.457C306.087 99.6329 301.366 94.9115 295.542 94.9115C289.718 94.9115 284.996 99.6329 284.996 105.457C284.996 111.281 289.718 116.003 295.542 116.003Z" fill="#F2F2F2"/>
<path d="M342.998 116.003C348.822 116.003 353.543 111.281 353.543 105.457C353.543 99.6329 348.822 94.9115 342.998 94.9115C337.174 94.9115 332.452 99.6329 332.452 105.457C332.452 111.281 337.174 116.003 342.998 116.003Z" fill="#F2F2F2"/>
<path d="M390.453 116.003C396.277 116.003 400.999 111.281 400.999 105.457C400.999 99.6329 396.277 94.9115 390.453 94.9115C384.629 94.9115 379.908 99.6329 379.908 105.457C379.908 111.281 384.629 116.003 390.453 116.003Z" fill="#F2F2F2"/>
<path d="M10.8127 163.458C16.6369 163.458 21.3583 158.737 21.3583 152.913C21.3583 147.089 16.6369 142.367 10.8127 142.367C4.98851 142.367 0.26709 147.089 0.26709 152.913C0.26709 158.737 4.98851 163.458 10.8127 163.458Z" fill="#F2F2F2"/>
<path d="M58.2683 163.458C64.0924 163.458 68.8139 158.737 68.8139 152.913C68.8139 147.089 64.0924 142.367 58.2683 142.367C52.4441 142.367 47.7227 147.089 47.7227 152.913C47.7227 158.737 52.4441 163.458 58.2683 163.458Z" fill="#F2F2F2"/>
<path d="M105.724 163.458C111.548 163.458 116.27 158.737 116.27 152.913C116.27 147.089 111.548 142.367 105.724 142.367C99.9001 142.367 95.1787 147.089 95.1787 152.913C95.1787 158.737 99.9001 163.458 105.724 163.458Z" fill="#F2F2F2"/>
<path d="M153.18 163.458C159.004 163.458 163.725 158.737 163.725 152.913C163.725 147.089 159.004 142.367 153.18 142.367C147.356 142.367 142.634 147.089 142.634 152.913C142.634 158.737 147.356 163.458 153.18 163.458Z" fill="#F2F2F2"/>
<path d="M200.633 163.458C206.457 163.458 211.179 158.737 211.179 152.913C211.179 147.089 206.457 142.367 200.633 142.367C194.809 142.367 190.087 147.089 190.087 152.913C190.087 158.737 194.809 163.458 200.633 163.458Z" fill="#F2F2F2"/>
<path d="M248.089 163.458C253.913 163.458 258.634 158.737 258.634 152.913C258.634 147.089 253.913 142.367 248.089 142.367C242.264 142.367 237.543 147.089 237.543 152.913C237.543 158.737 242.264 163.458 248.089 163.458Z" fill="#F2F2F2"/>
<path d="M295.542 163.458C301.366 163.458 306.087 158.737 306.087 152.913C306.087 147.089 301.366 142.367 295.542 142.367C289.718 142.367 284.996 147.089 284.996 152.913C284.996 158.737 289.718 163.458 295.542 163.458Z" fill="#F2F2F2"/>
<path d="M342.998 163.458C348.822 163.458 353.543 158.737 353.543 152.913C353.543 147.089 348.822 142.367 342.998 142.367C337.174 142.367 332.452 147.089 332.452 152.913C332.452 158.737 337.174 163.458 342.998 163.458Z" fill="#F2F2F2"/>
<path d="M390.453 163.458C396.277 163.458 400.999 158.737 400.999 152.913C400.999 147.089 396.277 142.367 390.453 142.367C384.629 142.367 379.908 147.089 379.908 152.913C379.908 158.737 384.629 163.458 390.453 163.458Z" fill="#F2F2F2"/>
<path d="M10.8127 210.914C16.6369 210.914 21.3583 206.193 21.3583 200.369C21.3583 194.544 16.6369 189.823 10.8127 189.823C4.98851 189.823 0.26709 194.544 0.26709 200.369C0.26709 206.193 4.98851 210.914 10.8127 210.914Z" fill="#F2F2F2"/>
<path d="M58.2683 210.914C64.0924 210.914 68.8139 206.193 68.8139 200.369C68.8139 194.544 64.0924 189.823 58.2683 189.823C52.4441 189.823 47.7227 194.544 47.7227 200.369C47.7227 206.193 52.4441 210.914 58.2683 210.914Z" fill="#F2F2F2"/>
<path d="M105.724 210.914C111.548 210.914 116.27 206.193 116.27 200.369C116.27 194.544 111.548 189.823 105.724 189.823C99.9001 189.823 95.1787 194.544 95.1787 200.369C95.1787 206.193 99.9001 210.914 105.724 210.914Z" fill="#F2F2F2"/>
<path d="M153.18 210.914C159.004 210.914 163.725 206.193 163.725 200.369C163.725 194.544 159.004 189.823 153.18 189.823C147.356 189.823 142.634 194.544 142.634 200.369C142.634 206.193 147.356 210.914 153.18 210.914Z" fill="#F2F2F2"/>
<path d="M200.633 210.914C206.457 210.914 211.179 206.193 211.179 200.369C211.179 194.544 206.457 189.823 200.633 189.823C194.809 189.823 190.087 194.544 190.087 200.369C190.087 206.193 194.809 210.914 200.633 210.914Z" fill="#F2F2F2"/>
<path d="M248.089 210.914C253.913 210.914 258.634 206.193 258.634 200.369C258.634 194.544 253.913 189.823 248.089 189.823C242.264 189.823 237.543 194.544 237.543 200.369C237.543 206.193 242.264 210.914 248.089 210.914Z" fill="#F2F2F2"/>
<path d="M295.542 210.914C301.366 210.914 306.087 206.193 306.087 200.369C306.087 194.544 301.366 189.823 295.542 189.823C289.718 189.823 284.996 194.544 284.996 200.369C284.996 206.193 289.718 210.914 295.542 210.914Z" fill="#F2F2F2"/>
<path d="M342.998 210.914C348.822 210.914 353.543 206.193 353.543 200.369C353.543 194.544 348.822 189.823 342.998 189.823C337.174 189.823 332.452 194.544 332.452 200.369C332.452 206.193 337.174 210.914 342.998 210.914Z" fill="#F2F2F2"/>
<path d="M390.453 210.914C396.277 210.914 400.999 206.193 400.999 200.369C400.999 194.544 396.277 189.823 390.453 189.823C384.629 189.823 379.908 194.544 379.908 200.369C379.908 206.193 384.629 210.914 390.453 210.914Z" fill="#F2F2F2"/>
<path d="M10.8127 258.365C16.6369 258.365 21.3583 253.643 21.3583 247.819C21.3583 241.995 16.6369 237.273 10.8127 237.273C4.98851 237.273 0.26709 241.995 0.26709 247.819C0.26709 253.643 4.98851 258.365 10.8127 258.365Z" fill="#F2F2F2"/>
<path d="M58.2683 258.365C64.0924 258.365 68.8139 253.643 68.8139 247.819C68.8139 241.995 64.0924 237.273 58.2683 237.273C52.4441 237.273 47.7227 241.995 47.7227 247.819C47.7227 253.643 52.4441 258.365 58.2683 258.365Z" fill="#F2F2F2"/>
<path d="M105.724 258.365C111.548 258.365 116.27 253.643 116.27 247.819C116.27 241.995 111.548 237.273 105.724 237.273C99.9001 237.273 95.1787 241.995 95.1787 247.819C95.1787 253.643 99.9001 258.365 105.724 258.365Z" fill="#F2F2F2"/>
<path d="M153.18 258.365C159.004 258.365 163.725 253.643 163.725 247.819C163.725 241.995 159.004 237.273 153.18 237.273C147.356 237.273 142.634 241.995 142.634 247.819C142.634 253.643 147.356 258.365 153.18 258.365Z" fill="#F2F2F2"/>
<path d="M200.633 258.365C206.457 258.365 211.179 253.643 211.179 247.819C211.179 241.995 206.457 237.273 200.633 237.273C194.809 237.273 190.087 241.995 190.087 247.819C190.087 253.643 194.809 258.365 200.633 258.365Z" fill="#F2F2F2"/>
<path d="M248.089 258.365C253.913 258.365 258.634 253.643 258.634 247.819C258.634 241.995 253.913 237.273 248.089 237.273C242.264 237.273 237.543 241.995 237.543 247.819C237.543 253.643 242.264 258.365 248.089 258.365Z" fill="#F2F2F2"/>
<path d="M295.542 258.365C301.366 258.365 306.087 253.643 306.087 247.819C306.087 241.995 301.366 237.273 295.542 237.273C289.718 237.273 284.996 241.995 284.996 247.819C284.996 253.643 289.718 258.365 295.542 258.365Z" fill="#F2F2F2"/>
<path d="M342.998 258.365C348.822 258.365 353.543 253.643 353.543 247.819C353.543 241.995 348.822 237.273 342.998 237.273C337.174 237.273 332.452 241.995 332.452 247.819C332.452 253.643 337.174 258.365 342.998 258.365Z" fill="#F2F2F2"/>
<path d="M390.453 258.365C396.277 258.365 400.999 253.643 400.999 247.819C400.999 241.995 396.277 237.273 390.453 237.273C384.629 237.273 379.908 241.995 379.908 247.819C379.908 253.643 384.629 258.365 390.453 258.365Z" fill="#F2F2F2"/>
<path d="M10.8127 305.82C16.6369 305.82 21.3583 301.099 21.3583 295.275C21.3583 289.451 16.6369 284.729 10.8127 284.729C4.98851 284.729 0.26709 289.451 0.26709 295.275C0.26709 301.099 4.98851 305.82 10.8127 305.82Z" fill="#F2F2F2"/>
<path d="M58.2683 305.82C64.0924 305.82 68.8139 301.099 68.8139 295.275C68.8139 289.451 64.0924 284.729 58.2683 284.729C52.4441 284.729 47.7227 289.451 47.7227 295.275C47.7227 301.099 52.4441 305.82 58.2683 305.82Z" fill="#F2F2F2"/>
<path d="M105.724 305.82C111.548 305.82 116.27 301.099 116.27 295.275C116.27 289.451 111.548 284.729 105.724 284.729C99.9001 284.729 95.1787 289.451 95.1787 295.275C95.1787 301.099 99.9001 305.82 105.724 305.82Z" fill="#F2F2F2"/>
<path d="M153.18 305.82C159.004 305.82 163.725 301.099 163.725 295.275C163.725 289.451 159.004 284.729 153.18 284.729C147.356 284.729 142.634 289.451 142.634 295.275C142.634 301.099 147.356 305.82 153.18 305.82Z" fill="#F2F2F2"/>
<path d="M200.633 305.82C206.457 305.82 211.179 301.099 211.179 295.275C211.179 289.451 206.457 284.729 200.633 284.729C194.809 284.729 190.087 289.451 190.087 295.275C190.087 301.099 194.809 305.82 200.633 305.82Z" fill="#F2F2F2"/>
<path d="M248.089 305.82C253.913 305.82 258.634 301.099 258.634 295.275C258.634 289.451 253.913 284.729 248.089 284.729C242.264 284.729 237.543 289.451 237.543 295.275C237.543 301.099 242.264 305.82 248.089 305.82Z" fill="#F2F2F2"/>
<path d="M295.542 305.82C301.366 305.82 306.087 301.099 306.087 295.275C306.087 289.451 301.366 284.729 295.542 284.729C289.718 284.729 284.996 289.451 284.996 295.275C284.996 301.099 289.718 305.82 295.542 305.82Z" fill="#F2F2F2"/>
<path d="M342.998 305.82C348.822 305.82 353.543 301.099 353.543 295.275C353.543 289.451 348.822 284.729 342.998 284.729C337.174 284.729 332.452 289.451 332.452 295.275C332.452 301.099 337.174 305.82 342.998 305.82Z" fill="#F2F2F2"/>
<path d="M390.453 305.82C396.277 305.82 400.999 301.099 400.999 295.275C400.999 289.451 396.277 284.729 390.453 284.729C384.629 284.729 379.908 289.451 379.908 295.275C379.908 301.099 384.629 305.82 390.453 305.82Z" fill="#F2F2F2"/>
<path d="M10.8127 353.276C16.6369 353.276 21.3583 348.555 21.3583 342.731C21.3583 336.906 16.6369 332.185 10.8127 332.185C4.98851 332.185 0.26709 336.906 0.26709 342.731C0.26709 348.555 4.98851 353.276 10.8127 353.276Z" fill="#F2F2F2"/>
<path d="M58.2683 353.276C64.0924 353.276 68.8139 348.555 68.8139 342.731C68.8139 336.906 64.0924 332.185 58.2683 332.185C52.4441 332.185 47.7227 336.906 47.7227 342.731C47.7227 348.555 52.4441 353.276 58.2683 353.276Z" fill="#F2F2F2"/>
<path d="M105.724 353.276C111.548 353.276 116.27 348.555 116.27 342.731C116.27 336.906 111.548 332.185 105.724 332.185C99.9001 332.185 95.1787 336.906 95.1787 342.731C95.1787 348.555 99.9001 353.276 105.724 353.276Z" fill="#F2F2F2"/>
<path d="M153.18 353.276C159.004 353.276 163.725 348.555 163.725 342.731C163.725 336.906 159.004 332.185 153.18 332.185C147.356 332.185 142.634 336.906 142.634 342.731C142.634 348.555 147.356 353.276 153.18 353.276Z" fill="#F2F2F2"/>
<path d="M200.633 353.276C206.457 353.276 211.179 348.555 211.179 342.731C211.179 336.906 206.457 332.185 200.633 332.185C194.809 332.185 190.087 336.906 190.087 342.731C190.087 348.555 194.809 353.276 200.633 353.276Z" fill="#F2F2F2"/>
<path d="M248.089 353.276C253.913 353.276 258.634 348.555 258.634 342.731C258.634 336.906 253.913 332.185 248.089 332.185C242.264 332.185 237.543 336.906 237.543 342.731C237.543 348.555 242.264 353.276 248.089 353.276Z" fill="#F2F2F2"/>
<path d="M295.542 353.276C301.366 353.276 306.087 348.555 306.087 342.731C306.087 336.906 301.366 332.185 295.542 332.185C289.718 332.185 284.996 336.906 284.996 342.731C284.996 348.555 289.718 353.276 295.542 353.276Z" fill="#F2F2F2"/>
<path d="M342.998 353.276C348.822 353.276 353.543 348.555 353.543 342.731C353.543 336.906 348.822 332.185 342.998 332.185C337.174 332.185 332.452 336.906 332.452 342.731C332.452 348.555 337.174 353.276 342.998 353.276Z" fill="#F2F2F2"/>
<path d="M390.453 353.276C396.277 353.276 400.999 348.555 400.999 342.731C400.999 336.906 396.277 332.185 390.453 332.185C384.629 332.185 379.908 336.906 379.908 342.731C379.908 348.555 384.629 353.276 390.453 353.276Z" fill="#F2F2F2"/>
<path d="M10.8127 400.732C16.6369 400.732 21.3583 396.01 21.3583 390.186C21.3583 384.362 16.6369 379.641 10.8127 379.641C4.98851 379.641 0.26709 384.362 0.26709 390.186C0.26709 396.01 4.98851 400.732 10.8127 400.732Z" fill="#F2F2F2"/>
<path d="M58.2683 400.732C64.0924 400.732 68.8139 396.01 68.8139 390.186C68.8139 384.362 64.0924 379.641 58.2683 379.641C52.4441 379.641 47.7227 384.362 47.7227 390.186C47.7227 396.01 52.4441 400.732 58.2683 400.732Z" fill="#F2F2F2"/>
<path d="M105.724 400.732C111.548 400.732 116.27 396.01 116.27 390.186C116.27 384.362 111.548 379.641 105.724 379.641C99.9001 379.641 95.1787 384.362 95.1787 390.186C95.1787 396.01 99.9001 400.732 105.724 400.732Z" fill="#F2F2F2"/>
<path d="M153.18 400.732C159.004 400.732 163.725 396.01 163.725 390.186C163.725 384.362 159.004 379.641 153.18 379.641C147.356 379.641 142.634 384.362 142.634 390.186C142.634 396.01 147.356 400.732 153.18 400.732Z" fill="#F2F2F2"/>
<path d="M200.633 400.732C206.457 400.732 211.179 396.01 211.179 390.186C211.179 384.362 206.457 379.641 200.633 379.641C194.809 379.641 190.087 384.362 190.087 390.186C190.087 396.01 194.809 400.732 200.633 400.732Z" fill="#F2F2F2"/>
<path d="M248.089 400.732C253.913 400.732 258.634 396.01 258.634 390.186C258.634 384.362 253.913 379.641 248.089 379.641C242.264 379.641 237.543 384.362 237.543 390.186C237.543 396.01 242.264 400.732 248.089 400.732Z" fill="#F2F2F2"/>
<path d="M295.542 400.732C301.366 400.732 306.087 396.01 306.087 390.186C306.087 384.362 301.366 379.641 295.542 379.641C289.718 379.641 284.996 384.362 284.996 390.186C284.996 396.01 289.718 400.732 295.542 400.732Z" fill="#F2F2F2"/>
<path d="M342.998 400.732C348.822 400.732 353.543 396.01 353.543 390.186C353.543 384.362 348.822 379.641 342.998 379.641C337.174 379.641 332.452 384.362 332.452 390.186C332.452 396.01 337.174 400.732 342.998 400.732Z" fill="#F2F2F2"/>
<path d="M390.453 400.732C396.277 400.732 400.999 396.01 400.999 390.186C400.999 384.362 396.277 379.641 390.453 379.641C384.629 379.641 379.908 384.362 379.908 390.186C379.908 396.01 384.629 400.732 390.453 400.732Z" fill="#F2F2F2"/>
</g>
<defs>
<clipPath id="clip0_58_1501">
<rect width="400.733" height="400.733" fill="white" transform="translate(0.26709)"/>
</clipPath>
</defs>
</svg>
